<svg width="25" height="25" viewBox="0 0 25 25" fill="none" xmlns="http://www.w3.org/2000/svg">
<g clip-path="url(#clip0_478_996)">
<path d="M4.05 12.5C4.05 7.82924 7.82967 4.05 12.5 4.05C17.1708 4.05 20.95 7.82974 20.95 12.5C20.95 17.1708 17.1703 20.95 12.5 20.95C7.82924 20.95 4.05 17.1703 4.05 12.5ZM5.13605 12.5C5.13605 16.5606 8.43947 19.864 12.5 19.864C16.5605 19.864 19.864 16.5606 19.864 12.5C19.864 8.43943 16.5605 5.13605 12.5 5.13605C8.43947 5.13605 5.13605 8.43943 5.13605 12.5Z" fill="black" stroke="white" stroke-width="0.1"/>
<path d="M12.5004 11.0854C11.997 11.0854 11.6389 11.298 11.6389 11.6113V15.8741C11.6389 16.1426 11.997 16.4111 12.5004 16.4111C12.9816 16.4111 13.3731 16.1426 13.3731 15.8741V11.6112C13.3731 11.298 12.9816 11.0854 12.5004 11.0854ZM12.5004 8.45605C11.9858 8.45605 11.583 8.82527 11.583 9.25044C11.583 9.67564 11.9858 10.056 12.5004 10.056C13.0039 10.056 13.4068 9.67564 13.4068 9.25044C13.4068 8.82527 13.0039 8.45605 12.5004 8.45605Z" fill="black"/>
</g>
<defs>
<clipPath id="clip0_478_996">
<rect width="25" height="25" fill="white"/>
</clipPath>
</defs>
</svg>
