<svg width="22" height="22" viewBox="0 0 22 22" fill="none" xmlns="http://www.w3.org/2000/svg">
<path d="M11.0188 22C4.92327 21.9969 -0.0031244 17.0799 1.48675e-06 11.0063C0.00312737 4.90765 4.92327 -0.00936427 11.0219 1.33914e-05C17.0361 0.00939105 21.9531 4.83576 22 10.9062C22.05 17.0736 17.0861 21.9844 11.0188 22ZM18.8272 17.2143C21.9844 13.3007 21.7968 7.2677 17.6831 3.5604C13.5382 -0.17191 7.15203 0.196944 3.46661 4.42627C-0.0312574 8.43678 0.47201 13.9727 3.17903 17.208C8.06166 14.7636 14.0352 14.8042 18.8272 17.2143ZM18.127 17.9926C15.6013 16.7985 12.9505 16.2796 10.1716 16.4109C7.96789 16.5141 5.87042 17.0455 3.86985 17.9957C7.71156 22.025 14.3728 21.9687 18.127 17.9926Z" fill="#8C8C8C"/>
<path d="M11.0063 4.38562C13.2882 4.3825 15.1544 6.24553 15.1669 8.5368C15.1763 10.8468 13.3132 12.7161 10.9938 12.7192C8.70255 12.7224 6.82702 10.8468 6.83327 8.55556C6.83952 6.2424 8.6963 4.39188 11.0063 4.38562ZM11.0032 5.38903C9.2527 5.38278 7.8398 6.78943 7.83355 8.55243C7.8273 10.2967 9.24958 11.719 11.0032 11.7221C12.7506 11.7252 14.1666 10.3029 14.1666 8.54618C14.1666 6.80193 12.7599 5.39529 11.0032 5.38903Z" fill="#8C8C8C"/>
</svg>
