<?xml version="1.0" encoding="utf-8"?>
<!-- Generator: Adobe Illustrator 22.0.1, SVG Export Plug-In . SVG Version: 6.00 Build 0)  -->
<svg version="1.1" id="Layer_1" xmlns="http://www.w3.org/2000/svg" xmlns:xlink="http://www.w3.org/1999/xlink" x="0px" y="0px"
	 viewBox="0 0 23 23" style="enable-background:new 0 0 23 23;" xml:space="preserve">
<style type="text/css">
	.st0{fill:#01B768;}
</style>
<g>
	<path class="st0" d="M11.5,22C5.7,22,1,17.3,1,11.5C1,5.7,5.7,1,11.5,1C17.3,1,22,5.6,22,11.4C22,17.3,17.3,22,11.5,22z M19,17.4
		c3-3.7,2.8-9.5-1.1-13c-4-3.6-10.1-3.2-13.6,0.8C1,9.1,1.5,14.3,4,17.4C8.7,15.1,14.4,15.1,19,17.4z M18.3,18.2
		c-2.4-1.1-4.9-1.6-7.6-1.5c-2.1,0.1-4.1,0.6-6,1.5C8.4,22,14.7,22,18.3,18.2z"/>
	<path class="st0" d="M11.5,5.2c2.2,0,4,1.8,4,4c0,2.2-1.8,4-4,4c-2.2,0-4-1.8-4-4C7.5,7,9.3,5.2,11.5,5.2z M11.5,6.1
		c-1.7,0-3,1.3-3,3c0,1.7,1.3,3,3,3c1.7,0,3-1.4,3-3C14.5,7.5,13.2,6.2,11.5,6.1z"/>
</g>
</svg>
