<svg width="20" height="16" viewBox="0 0 20 16" fill="none" xmlns="http://www.w3.org/2000/svg">
<path d="M11.3658 8.28236C10.618 8.28236 9.88694 8.03948 9.26514 7.58445C8.64335 7.12941 8.15872 6.48264 7.87254 5.72594C7.58636 4.96924 7.51148 4.13659 7.65737 3.33328C7.80326 2.52997 8.16338 1.79208 8.69217 1.21293C9.22096 0.633771 9.89469 0.239362 10.6281 0.0795735C11.3616 -0.0802149 12.1218 0.00179432 12.8128 0.31523C13.5037 0.628666 14.0942 1.15945 14.5096 1.84047C14.9251 2.52148 15.1469 3.32213 15.1469 4.14118C15.1469 5.23949 14.7485 6.29282 14.0394 7.06944C13.3303 7.84606 12.3686 8.28236 11.3658 8.28236ZM11.3658 1.65647C10.9171 1.65647 10.4785 1.8022 10.1054 2.07522C9.73233 2.34825 9.44155 2.7363 9.26984 3.19032C9.09813 3.64435 9.0532 4.14394 9.14074 4.62592C9.22828 5.10791 9.44434 5.55064 9.76162 5.89813C10.0789 6.24563 10.4831 6.48227 10.9232 6.57815C11.3633 6.67402 11.8194 6.62481 12.234 6.43675C12.6485 6.24869 13.0028 5.93022 13.2521 5.52161C13.5014 5.113 13.6344 4.63261 13.6344 4.14118C13.6344 3.4822 13.3954 2.8502 12.97 2.38423C12.5445 1.91825 11.9675 1.65647 11.3658 1.65647Z" fill="#1D1D1D"/>
<path d="M18.7354 15.5294C18.53 15.5265 18.3338 15.4363 18.1885 15.2781C18.0433 15.1198 17.9605 14.9061 17.9578 14.6823C17.9578 12.48 16.8589 11.0117 11.4781 11.0117C6.09743 11.0117 4.99848 12.48 4.99848 14.6823C4.99848 14.907 4.91656 15.1224 4.77074 15.2813C4.62492 15.4402 4.42714 15.5294 4.22092 15.5294C4.0147 15.5294 3.81692 15.4402 3.6711 15.2813C3.52528 15.1224 3.44336 14.907 3.44336 14.6823C3.44336 9.31763 9.0729 9.31763 11.4781 9.31763C13.8834 9.31763 19.5129 9.31763 19.5129 14.6823C19.5103 14.9061 19.4275 15.1198 19.2822 15.2781C19.137 15.4363 18.9408 15.5265 18.7354 15.5294Z" fill="#1D1D1D"/>
<mask id="path-3-inside-1_570_3984" fill="white">
<path d="M3.44348 5.73913V3.44348H2.29565V5.73913H0V6.88696H2.29565V9.18261H3.44348V6.88696H5.73913V5.73913H3.44348Z"/>
</mask>
<path d="M3.44348 5.73913H0.443477V8.73913H3.44348V5.73913ZM3.44348 3.44348H6.44348V0.443481H3.44348V3.44348ZM2.29565 3.44348V0.443481H-0.704349V3.44348H2.29565ZM2.29565 5.73913V8.73913H5.29565V5.73913H2.29565ZM0 5.73913V2.73913H-3V5.73913H0ZM0 6.88696H-3V9.88696H0V6.88696ZM2.29565 6.88696H5.29565V3.88696H2.29565V6.88696ZM2.29565 9.18261H-0.704349V12.1826H2.29565V9.18261ZM3.44348 9.18261V12.1826H6.44348V9.18261H3.44348ZM3.44348 6.88696V3.88696H0.443477V6.88696H3.44348ZM5.73913 6.88696V9.88696H8.73913V6.88696H5.73913ZM5.73913 5.73913H8.73913V2.73913H5.73913V5.73913ZM6.44348 5.73913V3.44348H0.443477V5.73913H6.44348ZM3.44348 0.443481H2.29565V6.44348H3.44348V0.443481ZM-0.704349 3.44348V5.73913H5.29565V3.44348H-0.704349ZM2.29565 2.73913H0V8.73913H2.29565V2.73913ZM-3 5.73913V6.88696H3V5.73913H-3ZM0 9.88696H2.29565V3.88696H0V9.88696ZM-0.704349 6.88696V9.18261H5.29565V6.88696H-0.704349ZM2.29565 12.1826H3.44348V6.18261H2.29565V12.1826ZM6.44348 9.18261V6.88696H0.443477V9.18261H6.44348ZM3.44348 9.88696H5.73913V3.88696H3.44348V9.88696ZM8.73913 6.88696V5.73913H2.73913V6.88696H8.73913ZM5.73913 2.73913H3.44348V8.73913H5.73913V2.73913Z" fill="#1D1D1D" mask="url(#path-3-inside-1_570_3984)"/>
</svg>
