<?xml version="1.0" encoding="utf-8"?>
<!-- Generator: Adobe Illustrator 22.0.1, SVG Export Plug-In . SVG Version: 6.00 Build 0)  -->
<svg version="1.1" id="Layer_1" xmlns="http://www.w3.org/2000/svg" xmlns:xlink="http://www.w3.org/1999/xlink" x="0px" y="0px"
	 viewBox="0 0 22 22" style="enable-background:new 0 0 22 22;" xml:space="preserve">
<style type="text/css">
	.st0{fill:#8C8C8C;}
</style>
<g>
	<path class="st0" d="M11,21.8c-6,0-10.8-4.8-10.8-10.7C0.3,5,5.1,0.2,11,0.3c5.9,0,10.7,4.7,10.7,10.7C21.8,16.9,16.9,21.7,11,21.8
		z M18.6,17.1c3.1-3.8,2.9-9.7-1.1-13.3C13.5,0.1,7.2,0.4,3.6,4.6c-3.4,3.9-2.9,9.3-0.3,12.5C8.1,14.7,14,14.7,18.6,17.1z M18,17.8
		c-2.5-1.2-5.1-1.7-7.8-1.5C8,16.4,6,16.9,4,17.8C7.8,21.8,14.3,21.7,18,17.8z"/>
	<path class="st0" d="M11,4.5c2.2,0,4.1,1.8,4.1,4.1c0,2.3-1.8,4.1-4.1,4.1c-2.2,0-4.1-1.8-4.1-4.1C6.9,6.4,8.7,4.5,11,4.5z M11,5.5
		c-1.7,0-3.1,1.4-3.1,3.1c0,1.7,1.4,3.1,3.1,3.1c1.7,0,3.1-1.4,3.1-3.1C14.1,6.9,12.7,5.5,11,5.5z"/>
</g>
</svg>
