<svg width="102" height="23" viewBox="0 0 102 23" fill="none" xmlns="http://www.w3.org/2000/svg">
<path d="M101.716 5.06142L101.538 15.9293C101.538 19.325 101.646 21.3584 101.864 22.0296C101.923 22.1481 101.952 22.2665 101.952 22.385C101.952 22.6219 101.666 22.7403 101.094 22.7403C100.521 22.7403 99.8796 22.5923 99.1688 22.2961C98.4779 22.0197 98.1324 21.6545 98.1324 21.2004C98.5272 18.4366 98.7247 14.7448 98.7247 10.1252L98.6062 5.59445C98.5667 5.04167 98.4483 4.56787 98.2508 4.17303C98.0732 3.77819 97.8955 3.52154 97.7178 3.40309L97.4809 3.25503C97.3427 3.17606 97.2736 3.08722 97.2736 2.98851C97.2736 2.71212 97.6981 2.37651 98.547 1.98167C99.4156 1.56709 100.255 1.3598 101.064 1.3598C101.38 1.3598 101.558 1.46838 101.597 1.68554C101.676 2.19883 101.716 3.32412 101.716 5.06142Z" fill="#01B768"/>
<path d="M89.3255 14.4784L89.3552 15.2187C89.3552 15.3371 89.4341 15.3964 89.5921 15.3964C90.2238 15.3371 90.7766 15.1792 91.2504 14.9226C91.7242 14.6462 92.0795 14.3402 92.3165 14.0046C92.7903 13.2741 93.0469 12.6424 93.0864 12.1093L93.116 11.754C93.116 10.6879 92.6915 10.1549 91.8426 10.1549C91.2109 10.1549 90.6976 10.4313 90.3028 10.984C89.6513 11.8527 89.3255 13.0175 89.3255 14.4784ZM95.7812 18.4169C95.7812 19.1671 95.6232 19.8284 95.3074 20.4009C95.0112 20.9537 94.6657 21.3683 94.2709 21.6447C93.8958 21.9013 93.4516 22.1086 92.9383 22.2666C92.2868 22.464 91.665 22.5627 91.0727 22.5627C89.4144 22.5627 88.1904 21.9408 87.4007 20.6971C86.611 19.4533 86.2162 17.874 86.2162 15.959C86.2162 14.0243 86.6999 12.3068 87.6672 10.8064C88.6543 9.30598 90.1251 8.55579 92.0795 8.55579C93.8563 8.55579 95.0606 9.17766 95.6923 10.4214C95.949 10.8952 96.0773 11.3493 96.0773 11.7836C96.0773 12.1982 96.0575 12.5338 96.0181 12.7904C95.9786 13.0273 95.8404 13.3926 95.6035 13.8861C95.3666 14.3797 95.0507 14.8239 94.6559 15.2187C94.261 15.6135 93.6392 15.9886 92.7903 16.344C91.9413 16.6993 90.9444 16.9362 89.7994 17.0547C89.6414 17.0547 89.5624 17.1238 89.5624 17.262C89.5624 17.4397 89.6217 17.7062 89.7401 18.0615C89.8783 18.3971 90.0264 18.6834 90.1843 18.9203C90.6186 19.4731 91.2603 19.7495 92.1092 19.7495C92.9581 19.7495 93.6786 19.4731 94.2709 18.9203C94.5868 18.6242 94.8434 18.2589 95.0408 17.8246C95.1198 17.6667 95.2185 17.5877 95.337 17.5877C95.4752 17.5877 95.5837 17.6963 95.6627 17.9135C95.7417 18.1306 95.7812 18.2984 95.7812 18.4169Z" fill="#01B768"/>
<path d="M74.3359 22.1777C74.6123 20.7958 74.7505 18.8611 74.7505 16.3736C74.7505 13.8664 74.7406 12.3857 74.7209 11.9317C74.7011 11.4776 74.5629 11.1124 74.3063 10.836C74.0496 10.5596 73.8226 10.4017 73.6252 10.3622C73.4475 10.3227 73.1909 10.303 72.8552 10.303C72.5196 10.303 72.1939 10.4609 71.878 10.7768C71.5621 11.0729 71.3746 11.3789 71.3154 11.6948L71.1969 12.1686C71.1377 12.7608 71.1081 14.0737 71.1081 16.1071C71.1081 18.1405 71.1476 19.4237 71.2265 19.9568C71.3252 20.47 71.3746 20.8155 71.3746 20.9932C71.3746 21.1709 71.2956 21.3486 71.1377 21.5262C70.4665 22.237 69.5189 22.5923 68.2949 22.5923C67.8605 22.5923 67.6434 22.464 67.6434 22.2073C68.0382 19.8383 68.2356 16.8178 68.2356 13.1458C68.2356 11.7836 68.206 10.8656 68.1468 10.3918L68.0283 9.44418C68.0086 9.22702 67.9691 8.99011 67.9099 8.73347C67.9099 8.49656 68.2159 8.37811 68.8279 8.37811C69.736 8.37811 70.3381 8.71373 70.6343 9.38495C70.654 9.46392 70.6935 9.5034 70.7527 9.5034C70.8119 9.5034 70.9501 9.42443 71.1673 9.2665C71.8188 8.75321 72.6973 8.49656 73.8029 8.49656C74.4346 8.49656 75.0565 8.61502 75.6685 8.85192C76.2805 9.08882 76.7049 9.40469 76.9418 9.79953C76.9616 9.83901 76.9912 9.85876 77.0307 9.85876C77.0701 9.85876 77.1294 9.81927 77.2083 9.74031C78.0375 8.91114 79.1134 8.49656 80.4361 8.49656C82.1932 8.49656 83.3974 9.12831 84.0489 10.3918C84.2858 10.8853 84.4043 11.5072 84.4043 12.2574C84.4043 13.0076 84.345 14.0737 84.2266 15.4556C84.1081 16.8375 84.0489 17.8937 84.0489 18.6242C84.0489 19.3546 84.118 20.016 84.2562 20.6082C84.4141 21.2005 84.5622 21.625 84.7004 21.8816C84.8583 22.1382 84.9373 22.2863 84.9373 22.3258C84.9373 22.5824 84.6609 22.7108 84.1081 22.7108C82.746 22.7108 81.7983 22.4344 81.2653 21.8816C80.7323 21.3288 80.4658 20.6082 80.4658 19.7199C80.4658 18.8117 80.6434 17.5976 80.9988 16.0775C81.3739 14.5376 81.5614 13.3827 81.5614 12.6128C81.5614 11.0531 80.9297 10.2733 79.6662 10.2733C79.1332 10.2733 78.7087 10.4313 78.3929 10.7471C78.077 11.063 77.8894 11.3789 77.8302 11.6948L77.771 12.1686C77.692 13.0767 77.6525 14.1724 77.6525 15.4556C77.6525 16.7388 77.6723 17.7457 77.7118 18.4761C77.7512 19.1868 77.7907 19.7495 77.8302 20.164C77.8697 20.5589 77.8894 20.7958 77.8894 20.8748C77.8894 21.4275 77.5439 21.852 76.853 22.1481C76.162 22.4442 75.4908 22.5923 74.8393 22.5923C74.5037 22.5923 74.3359 22.4541 74.3359 22.1777Z" fill="#01B768"/>
<path d="M65.5566 14.0637L65.675 15.1002C65.675 15.4753 65.3197 15.6628 64.609 15.6628C63.1678 15.6628 62.4472 15.1199 62.4472 14.0341C62.4472 13.7775 62.5163 13.4221 62.6545 12.9681C62.7927 12.514 62.8618 12.1192 62.8618 11.7836C62.8618 11.4479 62.7631 11.1617 62.5657 10.9248C62.3683 10.6681 62.082 10.5398 61.7069 10.5398C61.3318 10.5398 61.0061 10.678 60.7297 10.9544C60.473 11.211 60.3151 11.4776 60.2559 11.7539L60.1374 12.1685C60.019 12.7805 59.9597 13.8071 59.9597 15.2483C59.9597 16.6697 59.9795 17.795 60.019 18.6241C60.0585 19.4336 60.0979 19.9962 60.1374 20.3121C60.1769 20.6082 60.1966 20.7859 60.1966 20.8451C60.1966 21.3387 59.8906 21.7335 59.2786 22.0296C58.6666 22.3455 58.0546 22.5034 57.4426 22.5034C56.8306 22.5034 56.5246 22.3751 56.5246 22.1185L56.6727 21.2005C56.9491 19.4829 57.0873 17.2422 57.0873 14.4783C57.0873 11.7145 56.9886 9.83897 56.7912 8.85188C56.7912 8.61497 56.9985 8.49652 57.413 8.49652C58.4791 8.49652 59.1898 8.86175 59.5452 9.5922C59.5649 9.67117 59.5945 9.71065 59.634 9.71065C59.6932 9.71065 59.8314 9.62181 60.0486 9.44413C60.7001 8.9111 61.47 8.64459 62.3584 8.64459C62.9112 8.64459 63.4639 8.75317 64.0167 8.97033C65.142 9.42439 65.7046 10.372 65.7046 11.8132L65.5566 14.0637Z" fill="#01B768"/>
<path d="M48.1324 14.4784L48.162 15.2187C48.162 15.3371 48.241 15.3964 48.3989 15.3964C49.0307 15.3371 49.5834 15.1792 50.0572 14.9226C50.531 14.6462 50.8864 14.3402 51.1233 14.0046C51.5971 13.2741 51.8538 12.6424 51.8932 12.1093L51.9228 11.754C51.9228 10.6879 51.4984 10.1549 50.6495 10.1549C50.0178 10.1549 49.5045 10.4313 49.1096 10.984C48.4581 11.8527 48.1324 13.0175 48.1324 14.4784ZM54.588 18.4169C54.588 19.1671 54.4301 19.8284 54.1142 20.4009C53.8181 20.9537 53.4726 21.3683 53.0778 21.6447C52.7027 21.9013 52.2585 22.1086 51.7452 22.2666C51.0937 22.464 50.4718 22.5627 49.8796 22.5627C48.2212 22.5627 46.9972 21.9408 46.2076 20.6971C45.4179 19.4533 45.023 17.874 45.023 15.959C45.023 14.0243 45.5067 12.3068 46.4741 10.8064C47.4612 9.30598 48.9319 8.55579 50.8864 8.55579C52.6632 8.55579 53.8674 9.17766 54.4992 10.4214C54.7558 10.8952 54.8841 11.3493 54.8841 11.7836C54.8841 12.1982 54.8644 12.5338 54.8249 12.7904C54.7854 13.0273 54.6472 13.3926 54.4103 13.8861C54.1734 14.3797 53.8576 14.8239 53.4627 15.2187C53.0679 15.6135 52.446 15.9886 51.5971 16.344C50.7482 16.6993 49.7512 16.9362 48.6062 17.0547C48.4483 17.0547 48.3693 17.1238 48.3693 17.262C48.3693 17.4397 48.4285 17.7062 48.547 18.0615C48.6852 18.3971 48.8332 18.6834 48.9912 18.9203C49.4255 19.4731 50.0671 19.7495 50.916 19.7495C51.7649 19.7495 52.4855 19.4731 53.0778 18.9203C53.3936 18.6242 53.6503 18.2589 53.8477 17.8246C53.9267 17.6667 54.0254 17.5877 54.1438 17.5877C54.282 17.5877 54.3906 17.6963 54.4696 17.9135C54.5485 18.1306 54.588 18.2984 54.588 18.4169Z" fill="#01B768"/>
<path d="M37.9495 10.451L38.0383 9.26648C38.0581 9.08881 38.1963 8.99997 38.4529 8.99997H39.4894L39.3709 6.63093V6.51248C39.3709 6.05842 39.7164 5.6241 40.4074 5.20952C41.0983 4.79494 41.7301 4.58765 42.3026 4.58765C42.4803 4.58765 42.5691 4.66661 42.5691 4.82455V4.85416C42.4901 5.38719 42.4112 6.75926 42.3322 8.97036C43.2008 8.97036 43.7536 8.95061 43.9905 8.91113C44.2274 8.87164 44.3558 8.8519 44.3755 8.8519C44.5137 8.8519 44.5828 8.97035 44.5828 9.20726C44.5828 9.44416 44.4742 9.75016 44.257 10.1253C44.0399 10.4806 43.803 10.6682 43.5463 10.6879H42.3026C42.2828 11.3591 42.273 12.4943 42.273 14.0934C42.273 15.6727 42.2828 16.9757 42.3026 18.0023C42.3421 19.0289 42.3816 19.8087 42.421 20.3417C42.4605 20.855 42.5 21.2696 42.5395 21.5855C42.5987 21.9013 42.6382 22.1284 42.6579 22.2665C42.6974 22.4047 42.7172 22.4936 42.7172 22.5331C42.7172 22.7305 42.5888 22.8391 42.3322 22.8588C41.5623 22.8588 40.7923 22.7502 40.0224 22.5331C39.2722 22.3159 38.8971 21.9408 38.8971 21.4078C39.3117 18.0911 39.519 14.5277 39.519 10.7175C38.9859 10.7175 38.5812 10.7373 38.3048 10.7767H38.2752C38.0976 10.7767 37.989 10.6682 37.9495 10.451Z" fill="#01B768"/>
<path d="M36.0089 13.1162L35.9497 16.9066C35.9497 19.5323 36.2359 21.1116 36.8085 21.6447C36.8874 21.7236 36.9269 21.8125 36.9269 21.9112C36.9269 22.2073 36.2853 22.3554 35.0021 22.3554C33.7386 22.3554 33.0674 21.9803 32.9884 21.2301C32.9687 21.0524 32.9588 20.6872 32.9588 20.1344L33.0772 15.3963C33.0772 15.2582 32.9983 15.1891 32.8403 15.1891C31.8927 15.1891 31.0043 15.4556 30.1752 15.9886C29.346 16.5216 28.9314 17.2027 28.9314 18.0319C28.9314 18.4662 29.0499 18.8314 29.2868 19.1276C29.5237 19.4237 29.8099 19.5718 30.1456 19.5718C30.5009 19.5718 30.7872 19.5027 31.0043 19.3645C31.2412 19.2263 31.3794 19.1473 31.4189 19.1276C31.7545 19.1671 31.9223 19.5224 31.9223 20.1936C31.9223 20.8451 31.6163 21.3782 31.0043 21.7927C30.3923 22.1876 29.7507 22.385 29.0795 22.385C28.4083 22.385 27.8259 22.2665 27.3323 22.0296C26.8585 21.7927 26.513 21.5262 26.2959 21.2301C26.0787 20.934 25.901 20.5983 25.7628 20.2232C25.6247 19.7692 25.5556 19.3743 25.5556 19.0387C25.5556 17.6568 25.9899 16.5512 26.8585 15.7221C27.7272 14.8929 28.8426 14.3007 30.2048 13.9453C32.0013 13.59 32.939 13.2642 33.018 12.9681C33.0772 12.7509 33.1068 12.3857 33.1068 11.8724C33.1068 10.8261 32.5738 10.3029 31.5077 10.3029C31.0537 10.3029 30.649 10.451 30.2936 10.7471C29.9383 11.0235 29.7606 11.3789 29.7606 11.8132L29.9383 12.5239C29.8988 12.8595 29.5434 13.0569 28.8722 13.1162L28.5465 13.1458C27.9542 13.1458 27.4804 12.9977 27.125 12.7016C26.7894 12.4054 26.6216 12.0106 26.6216 11.5171C26.6216 11.2012 26.7203 10.8557 26.9177 10.4806C27.1349 10.0858 27.4014 9.76989 27.7173 9.53299C28.0332 9.29609 28.5168 9.0888 29.1683 8.91112C29.8396 8.7137 30.4812 8.61499 31.0932 8.61499C31.7052 8.61499 32.179 8.63473 32.5146 8.67422C32.8502 8.7137 33.3043 8.81241 33.8768 8.97034C34.469 9.10854 34.9527 9.38492 35.3278 9.79951C35.7227 10.2141 35.9299 10.6583 35.9497 11.1321C35.9892 11.5862 36.0089 12.2475 36.0089 13.1162Z" fill="#01B768"/>
<path d="M12.1418 11.4874C12.3393 10.9939 12.4972 10.4905 12.6157 9.97719C12.7538 9.44415 12.8229 8.96048 12.8229 8.52615C12.8229 8.07209 12.665 7.24293 12.3491 6.03867C11.7964 4.02499 11.3226 2.8306 10.9277 2.45551L10.75 2.24822C10.5526 2.12977 10.4539 1.99157 10.4539 1.83364C10.4539 1.49802 10.8981 1.21177 11.7865 0.974863C12.6749 0.737959 13.3955 0.619507 13.9482 0.619507C14.5207 0.619507 14.8564 0.787314 14.9551 1.12293C15.192 1.85338 15.4486 2.90957 15.725 4.29151C16.0211 5.67344 16.2679 6.86783 16.4653 7.87467C16.6825 8.86177 16.8503 9.62183 16.9688 10.1549C17.0872 10.6879 17.2451 11.3789 17.4426 12.2278C17.8177 13.8071 18.1927 15.1002 18.5678 16.1071C18.6863 16.3834 18.8245 16.5216 18.9824 16.5216C19.1601 16.5216 19.3378 16.3538 19.5155 16.0182C19.7129 15.6629 19.9695 15.1693 20.2854 14.5376C20.621 13.8861 21.0553 12.7411 21.5884 11.1025C22.1411 9.4639 22.4175 8.04248 22.4175 6.83822C22.4175 4.98248 21.8055 3.66964 20.5815 2.8997C20.4828 2.78125 20.4335 2.65293 20.4335 2.51473C20.4335 2.37654 20.5026 2.23835 20.6408 2.10015C20.7789 2.00144 20.9764 1.87312 21.233 1.71518C21.4897 1.53751 22.0029 1.32035 22.7729 1.0637C23.5428 0.787315 24.2338 0.649121 24.8458 0.649121C25.4578 0.649121 25.823 0.73796 25.9415 0.915637C26.0599 1.07357 26.1191 1.3697 26.1191 1.80402C26.1191 3.71899 25.5466 6.2657 24.4016 9.44415C23.2763 12.6029 22.072 15.3963 20.7888 17.8246C19.5253 20.2331 18.5777 21.7434 17.946 22.3554C17.6104 22.6515 17.4129 22.7996 17.3537 22.7996C17.176 22.7996 17.0082 22.6614 16.8503 22.385C16.1791 21.2597 15.4486 19.0585 14.6589 15.7813C14.3036 14.2414 14.0963 13.3728 14.0371 13.1754C13.9778 12.978 13.9285 12.8792 13.889 12.8792C13.7903 12.8792 13.7015 12.978 13.6225 13.1754C12.9315 14.7745 12.1616 16.344 11.3127 17.8838C10.4638 19.404 9.78268 20.5293 9.26939 21.2597L8.52907 22.3554C8.33165 22.6318 8.13423 22.77 7.93681 22.77C7.73939 22.77 7.56172 22.6416 7.40378 22.385C6.87075 21.3782 6.21926 19.4336 5.44933 16.5513L5.06436 15.0706C4.98539 14.7942 4.80772 14.044 4.53133 12.82C3.48501 8.14118 2.68546 5.21938 2.13268 4.05461C1.81681 3.40312 1.54043 2.97867 1.30352 2.78125C1.08636 2.58383 0.908683 2.46538 0.77049 2.4259C0.553329 2.32719 0.444748 2.20873 0.444748 2.07054C0.444748 1.9126 0.523716 1.76454 0.681651 1.62635C0.918554 1.44867 1.44172 1.24138 2.25114 1.00448C3.06055 0.74783 3.74165 0.619507 4.29443 0.619507C4.8472 0.619507 5.17294 0.787314 5.27165 1.12293C5.66649 1.85338 6.13043 3.49196 6.66346 6.03867C7.78875 11.369 8.61791 14.7251 9.15094 16.1071C9.24965 16.3834 9.38785 16.5216 9.56552 16.5216C9.7432 16.5216 9.90114 16.3736 10.0393 16.0774C10.217 15.8998 10.5625 15.2187 11.0758 14.0342C11.6088 12.8299 11.9642 11.981 12.1418 11.4874Z" fill="#01B768"/>
</svg>
