<svg width="26" height="15" viewBox="0 0 26 15" fill="none" xmlns="http://www.w3.org/2000/svg">
<path d="M0.738232 8.85881C0.330531 8.85881 0 8.52828 0 8.12058V6.64412C0 6.23642 0.330531 5.90588 0.738232 5.90588C1.14593 5.90588 1.47646 6.23642 1.47646 6.64412V8.12058C1.47646 8.52828 1.14593 8.85881 0.738232 8.85881Z" fill="#6F767E"/>
<path d="M24.4599 8.85881C24.0522 8.85881 23.7217 8.52828 23.7217 8.12058V6.64412C23.7217 6.23642 24.0522 5.90588 24.4599 5.90588C24.8676 5.90588 25.1981 6.23642 25.1981 6.64412V8.12058C25.1981 8.52828 24.8676 8.85881 24.4599 8.85881Z" fill="#6F767E"/>
<path d="M3.74019 10.3353C3.33248 10.3353 3.00195 10.0048 3.00195 9.59707V5.16768C3.00195 4.75997 3.33248 4.42944 3.74019 4.42944C4.14789 4.42944 4.47842 4.75997 4.47842 5.16768V9.59707C4.47842 10.0048 4.14789 10.3353 3.74019 10.3353Z" fill="#6F767E"/>
<path d="M21.458 10.3353C21.0503 10.3353 20.7197 10.0048 20.7197 9.59707V5.16768C20.7197 4.75997 21.0503 4.42944 21.458 4.42944C21.8657 4.42944 22.1962 4.75997 22.1962 5.16768V9.59707C22.1962 10.0048 21.8657 10.3353 21.458 10.3353Z" fill="#6F767E"/>
<path d="M6.69331 11.8117C6.28561 11.8117 5.95508 11.4811 5.95508 11.0734V3.69111C5.95508 3.28341 6.28561 2.95288 6.69331 2.95288C7.10101 2.95288 7.43154 3.28341 7.43154 3.69111V11.0734C7.43154 11.4811 7.10101 11.8117 6.69331 11.8117Z" fill="#6F767E"/>
<path d="M18.5048 11.8117C18.0971 11.8117 17.7666 11.4811 17.7666 11.0734V3.69111C17.7666 3.28341 18.0971 2.95288 18.5048 2.95288C18.9125 2.95288 19.2431 3.28341 19.2431 3.69111V11.0734C19.2431 11.4811 18.9125 11.8117 18.5048 11.8117Z" fill="#6F767E"/>
<path d="M9.64644 10.3353C9.23873 10.3353 8.9082 10.0048 8.9082 9.59707V5.16768C8.9082 4.75997 9.23873 4.42944 9.64644 4.42944C10.0541 4.42944 10.3847 4.75997 10.3847 5.16768V9.59707C10.3847 10.0048 10.0541 10.3353 9.64644 10.3353Z" fill="#6F767E"/>
<path d="M15.5522 10.3353C15.1445 10.3353 14.814 10.0048 14.814 9.59707V5.16768C14.814 4.75997 15.1445 4.42944 15.5522 4.42944C15.9599 4.42944 16.2904 4.75997 16.2904 5.16768V9.59707C16.2904 10.0048 15.9599 10.3353 15.5522 10.3353Z" fill="#6F767E"/>
<path d="M12.5991 14.7646C12.1914 14.7646 11.8608 14.4341 11.8608 14.0264V0.738232C11.8608 0.330531 12.1914 0 12.5991 0C13.0068 0 13.3373 0.330531 13.3373 0.738232V14.0264C13.3373 14.4341 13.0068 14.7646 12.5991 14.7646Z" fill="#6F767E"/>
</svg>
