<svg width="22" height="22" viewBox="0 0 22 22" fill="none" xmlns="http://www.w3.org/2000/svg">
<path d="M8.89844 8.4433C10.458 9.01281 12.1578 9.01281 13.7174 8.4433" stroke="white" stroke-width="1.31425" stroke-linecap="round" stroke-linejoin="round"/>
<path d="M15.5314 2.26648H7.08513C5.2189 2.26648 3.70312 3.79101 3.70312 5.64849V17.9937C3.70312 19.5708 4.83338 20.2367 6.21773 19.4744L10.4934 17.1C10.949 16.8459 11.685 16.8459 12.1319 17.1L16.4076 19.4744C17.7919 20.2455 18.9222 19.5796 18.9222 17.9937V5.64849C18.9134 3.79101 17.3976 2.26648 15.5314 2.26648Z" stroke="white" stroke-width="1.31425" stroke-linecap="round" stroke-linejoin="round"/>
<path d="M15.5314 2.26648H7.08513C5.2189 2.26648 3.70312 3.79101 3.70312 5.64849V17.9937C3.70312 19.5708 4.83338 20.2367 6.21773 19.4744L10.4934 17.1C10.949 16.8459 11.685 16.8459 12.1319 17.1L16.4076 19.4744C17.7919 20.2455 18.9222 19.5796 18.9222 17.9937V5.64849C18.9134 3.79101 17.3976 2.26648 15.5314 2.26648Z" stroke="white" stroke-width="1.31425" stroke-linecap="round" stroke-linejoin="round"/>
</svg>
