<svg width="23" height="23" viewBox="0 0 23 23" fill="none" xmlns="http://www.w3.org/2000/svg">
<g clip-path="url(#clip0_1044_830)">
<path d="M20.125 4.3125H17.9687L17.25 2.87498C16.8266 2.03835 16.6067 1.4375 15.8125 1.4375H7.18747C6.39326 1.4375 6.13092 2.12319 5.74995 2.87498L5.03119 4.3125H2.875C1.28727 4.3125 0 5.59976 0 7.18749V18.6875C0 20.2752 1.28727 21.5625 2.875 21.5625H20.125C21.7127 21.5625 23 20.2752 23 18.6875V7.18749C22.9999 5.5998 21.7127 4.3125 20.125 4.3125ZM11.5 18.6875C8.32456 18.6875 5.74999 16.1129 5.74999 12.9375C5.74999 9.7621 8.32456 7.18753 11.5 7.18753C14.6754 7.18753 17.25 9.7621 17.25 12.9375C17.25 16.1129 14.6754 18.6875 11.5 18.6875Z" fill="#6F767E"/>
<path d="M11.5 8.625C9.11808 8.625 7.1875 10.5556 7.1875 12.9375C7.1875 15.3195 9.11808 17.25 11.5 17.25C13.8819 17.25 15.8125 15.3195 15.8125 12.9375C15.8125 10.5555 13.8819 8.625 11.5 8.625Z" fill="#6F767E"/>
</g>
<defs>
<clipPath id="clip0_1044_830">
<rect width="23" height="23" fill="white"/>
</clipPath>
</defs>
</svg>
