<?xml version="1.0" encoding="utf-8"?>
<!-- Generator: Adobe Illustrator 22.0.1, SVG Export Plug-In . SVG Version: 6.00 Build 0)  -->
<svg version="1.1" id="Layer_1" xmlns="http://www.w3.org/2000/svg" xmlns:xlink="http://www.w3.org/1999/xlink" x="0px" y="0px"
	 viewBox="0 0 25 25" style="enable-background:new 0 0 25 25;" xml:space="preserve">
<g>
	<path d="M20.8,7.5c-0.1-0.2-0.2-0.3-0.4-0.3c-0.7,0-1.5,0-2.2,0h-1V7.1c0-0.1,0-0.1,0-0.1c-0.1-1-0.5-1.8-1.4-2.4
		c-0.5-0.3-1-0.5-1.5-0.5l0,0h-3.5h-0.1h-0.1C9.9,4.2,9.3,4.5,8.8,4.9s-0.8,1-1,1.6c0,0.2,0,0.4,0,0.7l0,0l0,0H6.9
		c-0.7,0-1.5,0-2.2,0l0,0c-0.3,0-0.5,0.2-0.5,0.4l0,0v0.1l0,0c0.1,0.2,0.2,0.4,0.5,0.4s0.6,0,0.9,0H6h0.2V11c0,2.3,0,4.5,0,6.8
		c0,0.6,0.2,1.2,0.5,1.7c0.4,0.5,0.8,0.9,1.4,1.2c0.3,0.1,0.6,0.2,1,0.2l0,0h6.7h0.1H16c0.9-0.1,1.6-0.5,2.1-1.2
		c0.4-0.5,0.6-1,0.7-1.6c0-0.1,0-0.2,0-0.3c0-3.1,0-6.3,0-9.4V8.2h0.5c0.4,0,0.7,0,1.1,0l0,0c0.3,0,0.5-0.2,0.5-0.4l0,0V7.7l0,0
		C20.9,7.6,20.9,7.6,20.8,7.5z M8.8,7.2c0-0.2,0-0.4,0.1-0.6C9.1,5.8,9.7,5.2,10.5,5c0.1,0,0.3,0,0.5,0h1c0.7,0,1.5,0,2.2,0
		s1.4,0.3,1.8,0.9c0.2,0.3,0.4,0.7,0.4,1.1v0.2H8.8L8.8,7.2z M17.8,17.8c0,1-0.7,1.8-1.7,2.1c-0.2,0-0.3,0.1-0.5,0.1
		c-2.1,0-4.2,0-6.3,0c-0.6,0-1.1-0.2-1.6-0.6C7.4,19,7.2,18.5,7.2,18c0-0.1,0-0.2,0-0.3c0-3.1,0-6.3,0-9.4V8.2h10.7v3.3
		C17.9,11.5,17.8,15.7,17.8,17.8z"/>
	<path d="M13.9,16.1c0.2,0.1,0.3,0.1,0.5,0c0.1-0.1,0.2-0.2,0.2-0.4c0-0.6,0-1.2,0-1.8v-0.5c0-0.3,0-0.6,0-0.9v-0.1
		c0-0.1,0-0.2,0-0.3c0-0.2-0.1-0.3-0.2-0.4c-0.1,0-0.2-0.1-0.2-0.1c-0.1,0-0.1,0-0.2,0c-0.2,0.1-0.3,0.2-0.3,0.5c0,0,0,2.3,0,3.5
		C13.7,15.8,13.7,16,13.9,16.1z"/>
	<path d="M10.7,16.1c0.2,0.1,0.3,0.1,0.5,0s0.2-0.2,0.2-0.4V12l0,0c0-0.1-0.1-0.3-0.2-0.4c-0.1-0.1-0.2-0.1-0.3-0.1s-0.2,0-0.3,0.1
		c-0.2,0.1-0.2,0.2-0.2,0.4c0,0.4,0,0.9,0,1.3v1.1c0,0.4,0,0.8,0,1.2C10.4,15.8,10.5,16,10.7,16.1z"/>
</g>
</svg>
