<svg width="119" height="78" viewBox="0 0 119 78" fill="none" xmlns="http://www.w3.org/2000/svg">
<path fill-rule="evenodd" clip-rule="evenodd" d="M53.9194 36.5999H42.4167C41.5105 36.5999 40.6415 36.9634 40.0007 37.6104C39.36 38.2574 39 39.1349 39 40.0499C39 40.9649 39.36 41.8424 40.0007 42.4894C40.6415 43.1364 41.5105 43.4999 42.4167 43.4999H44.125V73.4C44.1254 74.6199 44.6055 75.7896 45.4598 76.6522C46.314 77.5148 47.4725 77.9996 48.6806 78H70.3194C71.5275 77.9996 72.686 77.5148 73.5402 76.6522C74.3945 75.7896 74.8746 74.6199 74.875 73.4V43.4999H76.5833C77.4894 43.4996 78.3582 43.136 78.9989 42.4891C79.6396 41.8421 79.9997 40.9648 80 40.0499C79.9997 39.135 79.6396 38.2577 78.9989 37.6108C78.3582 36.9639 77.4894 36.6003 76.5833 36.5999H65.0806C64.8177 35.3013 64.1188 34.1342 63.1019 33.296C62.085 32.4578 60.8127 32 59.5 32C58.1873 32 56.915 32.4578 55.8981 33.296C54.8812 34.1342 54.1823 35.3013 53.9194 36.5999ZM72.5972 43.4999V73.4C72.597 74.0099 72.357 74.5948 71.9298 75.0261C71.5027 75.4574 70.9235 75.6998 70.3194 75.7H48.6806C48.0765 75.6998 47.4973 75.4574 47.0702 75.0261C46.643 74.5948 46.403 74.0099 46.4028 73.4V43.4999H72.5972ZM58.3611 49.2499V69.95C58.3611 70.255 58.4811 70.5475 58.6947 70.7632C58.9083 70.9788 59.1979 71.1 59.5 71.1C59.8021 71.1 60.0917 70.9788 60.3053 70.7632C60.5189 70.5475 60.6389 70.255 60.6389 69.95V49.2499C60.6389 48.9449 60.5189 48.6524 60.3053 48.4368C60.0917 48.2211 59.8021 48.0999 59.5 48.0999C59.1979 48.0999 58.9083 48.2211 58.6947 48.4368C58.4811 48.6524 58.3611 48.9449 58.3611 49.2499ZM50.3889 49.2499V69.95C50.3889 70.255 50.5089 70.5475 50.7225 70.7632C50.936 70.9788 51.2257 71.1 51.5278 71.1C51.8298 71.1 52.1195 70.9788 52.3331 70.7632C52.5467 70.5475 52.6667 70.255 52.6667 69.95V49.2499C52.6667 48.9449 52.5467 48.6524 52.3331 48.4368C52.1195 48.2211 51.8298 48.0999 51.5278 48.0999C51.2257 48.0999 50.936 48.2211 50.7225 48.4368C50.5089 48.6524 50.3889 48.9449 50.3889 49.2499ZM66.3333 49.2499V69.95C66.3333 70.255 66.4533 70.5475 66.6669 70.7632C66.8805 70.9788 67.1702 71.1 67.4722 71.1C67.7743 71.1 68.064 70.9788 68.2775 70.7632C68.4911 70.5475 68.6111 70.255 68.6111 69.95V49.2499C68.6111 48.9449 68.4911 48.6524 68.2775 48.4368C68.064 48.2211 67.7743 48.0999 67.4722 48.0999C67.1702 48.0999 66.8805 48.2211 66.6669 48.4368C66.4533 48.6524 66.3333 48.9449 66.3333 49.2499ZM76.5833 41.1999H42.4167C42.1148 41.1992 41.8254 41.0781 41.6115 40.863C41.4008 40.6454 41.2813 40.3542 41.2778 40.0499C41.2779 39.745 41.3979 39.4525 41.6115 39.2369C41.825 39.0212 42.1147 38.9 42.4167 38.8999H76.5833C76.8854 38.8999 77.1751 39.0211 77.3886 39.2368C77.6022 39.4524 77.7222 39.7449 77.7222 40.0499C77.7222 40.3549 77.6022 40.6474 77.3886 40.8631C77.1751 41.0788 76.8854 41.1999 76.5833 41.1999ZM62.7219 36.5999C62.4863 35.9272 62.0499 35.3448 61.4729 34.9329C60.8959 34.521 60.2066 34.2998 59.5 34.2998C58.7934 34.2998 58.1041 34.521 57.5271 34.9329C56.9501 35.3448 56.5137 35.9272 56.2781 36.5999H62.7219Z" fill="#FF5167"/>
<path d="M1.54288 41.6827C2.39498 41.6827 3.08575 40.9971 3.08575 40.1514C3.08575 39.3057 2.39498 38.6201 1.54288 38.6201C0.690769 38.6201 0 39.3057 0 40.1514C0 40.9971 0.690769 41.6827 1.54288 41.6827Z" fill="#BCCBD6" fill-opacity="0.48"/>
<path d="M15.4296 34.7921C16.2817 34.7921 16.9725 34.1065 16.9725 33.2608C16.9725 32.4151 16.2817 31.7295 15.4296 31.7295C14.5775 31.7295 13.8867 32.4151 13.8867 33.2608C13.8867 34.1065 14.5775 34.7921 15.4296 34.7921Z" fill="#BCCBD6" fill-opacity="0.48"/>
<path d="M15.8209 44.7283H12.929V47.639H11.7749V44.7283H8.89648V43.6907H11.7749V40.7666H12.929V43.6907H15.8209V44.7283Z" fill="#FF5167"/>
<path d="M104.36 75.8112C105.141 75.8112 105.774 75.1828 105.774 74.4076C105.774 73.6324 105.141 73.0039 104.36 73.0039C103.579 73.0039 102.945 73.6324 102.945 74.4076C102.945 75.1828 103.579 75.8112 104.36 75.8112Z" fill="#A0AAC0"/>
<path d="M108.036 67.9507C109.286 67.9507 110.299 66.9452 110.299 65.7049C110.299 64.4645 109.286 63.459 108.036 63.459C106.787 63.459 105.773 64.4645 105.773 65.7049C105.773 66.9452 106.787 67.9507 108.036 67.9507Z" fill="#BCCBD6" fill-opacity="0.48"/>
<path d="M118.405 73.0887H115.513V75.9993H114.359V73.0887H111.48V72.0511H114.359V69.127H115.513V72.0511H118.405V73.0887Z" fill="#FF5167"/>
<path d="M82.0512 18.3972C81.6747 19.2442 82.0561 20.2304 82.9033 20.6C83.7504 20.9696 84.7424 20.5825 85.119 19.7355C85.4955 18.8885 85.114 17.9023 84.2669 17.5327C83.4198 17.1632 82.4278 17.5502 82.0512 18.3972Z" fill="#BCCBD6" fill-opacity="0.48"/>
<path d="M72.8461 6.14327C72.4696 6.99027 72.8511 7.9765 73.6982 8.34608C74.5453 8.71566 75.5373 8.32862 75.9139 7.48162C76.2904 6.63462 75.909 5.6484 75.0618 5.27882C74.2147 4.90925 73.2227 5.29627 72.8461 6.14327Z" fill="#FF5167"/>
<path d="M63.1395 12.5623L64.3117 9.92578L61.6383 8.75883L62.1053 7.70717L64.7798 8.87353L65.9465 6.24931L66.8993 6.66551L65.7325 9.28963L68.4197 10.4612L67.9517 11.5134L65.2655 10.3414L64.0932 12.9779L63.1395 12.5623Z" fill="#E8E8E8"/>
</svg>
