<svg width="20" height="20" viewBox="0 0 20 20" fill="none" xmlns="http://www.w3.org/2000/svg">
<path d="M15.8333 5.83337C15.6123 5.83337 15.4004 5.92117 15.2441 6.07745C15.0878 6.23373 15 6.44569 15 6.66671V15.9925C14.9761 16.4139 14.7866 16.8088 14.4729 17.0912C14.1592 17.3736 13.7466 17.5205 13.325 17.5H6.675C6.25341 17.5205 5.84082 17.3736 5.52709 17.0912C5.21336 16.8088 5.02391 16.4139 5 15.9925V6.66671C5 6.44569 4.9122 6.23373 4.75592 6.07745C4.59964 5.92117 4.38768 5.83337 4.16667 5.83337C3.94565 5.83337 3.73369 5.92117 3.57741 6.07745C3.42113 6.23373 3.33333 6.44569 3.33333 6.66671V15.9925C3.35712 16.8561 3.72215 17.675 4.34848 18.2699C4.97481 18.8648 5.81139 19.1873 6.675 19.1667H13.325C14.1886 19.1873 15.0252 18.8648 15.6515 18.2699C16.2778 17.675 16.6429 16.8561 16.6667 15.9925V6.66671C16.6667 6.44569 16.5789 6.23373 16.4226 6.07745C16.2663 5.92117 16.0543 5.83337 15.8333 5.83337ZM16.6667 3.33337H13.3333V1.66671C13.3333 1.44569 13.2455 1.23373 13.0893 1.07745C12.933 0.921171 12.721 0.833374 12.5 0.833374H7.5C7.27899 0.833374 7.06702 0.921171 6.91074 1.07745C6.75446 1.23373 6.66667 1.44569 6.66667 1.66671V3.33337H3.33333C3.11232 3.33337 2.90036 3.42117 2.74408 3.57745C2.5878 3.73373 2.5 3.94569 2.5 4.16671C2.5 4.38772 2.5878 4.59968 2.74408 4.75596C2.90036 4.91224 3.11232 5.00004 3.33333 5.00004H16.6667C16.8877 5.00004 17.0996 4.91224 17.2559 4.75596C17.4122 4.59968 17.5 4.38772 17.5 4.16671C17.5 3.94569 17.4122 3.73373 17.2559 3.57745C17.0996 3.42117 16.8877 3.33337 16.6667 3.33337ZM8.33333 3.33337V2.50004H11.6667V3.33337H8.33333Z" fill="#FF6060"/>
<path d="M9.16667 14.1667V8.33333C9.16667 8.11232 9.07887 7.90036 8.92259 7.74408C8.76631 7.5878 8.55435 7.5 8.33333 7.5C8.11232 7.5 7.90036 7.5878 7.74408 7.74408C7.5878 7.90036 7.5 8.11232 7.5 8.33333V14.1667C7.5 14.3877 7.5878 14.5996 7.74408 14.7559C7.90036 14.9122 8.11232 15 8.33333 15C8.55435 15 8.76631 14.9122 8.92259 14.7559C9.07887 14.5996 9.16667 14.3877 9.16667 14.1667ZM12.5 14.1667V8.33333C12.5 8.11232 12.4122 7.90036 12.2559 7.74408C12.0996 7.5878 11.8877 7.5 11.6667 7.5C11.4457 7.5 11.2337 7.5878 11.0774 7.74408C10.9211 7.90036 10.8333 8.11232 10.8333 8.33333V14.1667C10.8333 14.3877 10.9211 14.5996 11.0774 14.7559C11.2337 14.9122 11.4457 15 11.6667 15C11.8877 15 12.0996 14.9122 12.2559 14.7559C12.4122 14.5996 12.5 14.3877 12.5 14.1667Z" fill="#FF6060"/>
</svg>
