<svg width="18" height="17" viewBox="0 0 18 17" fill="none" xmlns="http://www.w3.org/2000/svg">
<path d="M12.8664 0.459764L4.95458 3.08827C-0.363765 4.86689 -0.363765 7.76701 4.95458 9.53687L7.30271 10.3167L8.0825 12.6648C9.85236 17.9831 12.7612 17.9831 14.5311 12.6648L17.1684 4.76175C18.3424 1.21327 16.4149 -0.723064 12.8664 0.459764ZM13.1467 5.17355L9.81731 8.52051C9.68588 8.65194 9.51941 8.71327 9.35294 8.71327C9.18647 8.71327 9.02 8.65194 8.88857 8.52051C8.63448 8.26642 8.63448 7.84586 8.88857 7.59177L12.218 4.24481C12.4721 3.99072 12.8927 3.99072 13.1467 4.24481C13.4008 4.4989 13.4008 4.91946 13.1467 5.17355Z" fill="white"/>
</svg>
