<svg width="18" height="19" viewBox="0 0 18 19" fill="none" xmlns="http://www.w3.org/2000/svg">
<path d="M13.1679 0.585449H4.40623C1.98801 0.585449 0.0253906 2.5393 0.0253906 4.94877V10.1883V11.0644C0.0253906 13.4739 1.98801 15.4277 4.40623 15.4277H5.72048C5.95705 15.4277 6.27247 15.5855 6.42142 15.7782L7.73567 17.5218C8.31394 18.2928 9.2602 18.2928 9.83848 17.5218L11.1527 15.7782C11.3192 15.5592 11.5821 15.4277 11.8537 15.4277H13.1679C15.5861 15.4277 17.5488 13.4739 17.5488 11.0644V4.94877C17.5488 2.5393 15.5861 0.585449 13.1679 0.585449ZM5.2824 9.34713C4.79175 9.34713 4.40623 8.95286 4.40623 8.47096C4.40623 7.98907 4.80051 7.5948 5.2824 7.5948C5.76429 7.5948 6.15857 7.98907 6.15857 8.47096C6.15857 8.95286 5.77305 9.34713 5.2824 9.34713ZM8.78707 9.34713C8.29642 9.34713 7.9109 8.95286 7.9109 8.47096C7.9109 7.98907 8.30518 7.5948 8.78707 7.5948C9.26897 7.5948 9.66324 7.98907 9.66324 8.47096C9.66324 8.95286 9.27773 9.34713 8.78707 9.34713ZM12.2917 9.34713C11.8011 9.34713 11.4156 8.95286 11.4156 8.47096C11.4156 7.98907 11.8099 7.5948 12.2917 7.5948C12.7736 7.5948 13.1679 7.98907 13.1679 8.47096C13.1679 8.95286 12.7824 9.34713 12.2917 9.34713Z" fill="white"/>
</svg>
