<svg width="17" height="17" viewBox="0 0 17 17" fill="none" xmlns="http://www.w3.org/2000/svg">
<path d="M16.2115 5.53635C16.6366 5.11124 16.8739 4.54442 16.8739 3.94135C16.8739 3.33829 16.6399 2.77147 16.2115 2.34636L14.5308 0.66568C14.1024 0.233977 13.5356 0 12.9325 0C12.3295 0 11.7627 0.233977 11.3376 0.662385L0.854733 11.1452C0.268143 11.7318 -0.041629 12.5392 0.00450724 13.3663L0.00121179 16.0488C0.00121179 16.2663 0.0868934 16.4772 0.241779 16.6321C0.396665 16.787 0.604279 16.8727 0.825074 16.8727L3.50757 16.8694C4.33473 16.9155 5.14211 16.6058 5.7287 16.0192C6.05165 15.6962 6.05165 15.1755 5.7287 14.8526C5.40575 14.5296 4.88506 14.5296 4.56211 14.8526C4.30507 15.1096 3.94586 15.2447 3.58336 15.2217C3.56689 15.2217 3.54711 15.2184 3.53064 15.2184L1.64894 15.225L1.65223 13.3433C1.65223 13.3268 1.65223 13.307 1.64894 13.2905C1.62587 12.928 1.76098 12.5688 2.01803 12.3118L10.7543 3.57556L13.2983 6.11965L6.73381 12.6842C6.41086 13.0071 6.41086 13.5278 6.73381 13.8508C7.05676 14.1737 7.57745 14.1737 7.9004 13.8508L16.2115 5.53635ZM11.9208 2.40897L12.5041 1.82568C12.6195 1.71034 12.7711 1.64772 12.9358 1.64772C13.0973 1.64772 13.2522 1.71034 13.3675 1.82568L15.0482 3.50636C15.2855 3.74363 15.2855 4.13249 15.0482 4.36976L14.4649 4.95306L11.9208 2.40897ZM16.05 15.225H8.61881C8.16403 15.225 7.79494 15.5941 7.79494 16.0488C7.79494 16.5036 8.16403 16.8727 8.61881 16.8727H16.05C16.5048 16.8727 16.8739 16.5036 16.8739 16.0488C16.8739 15.5941 16.5048 15.225 16.05 15.225Z" fill="white"/>
</svg>
