<svg width="20" height="20" viewBox="0 0 20 20" fill="none" xmlns="http://www.w3.org/2000/svg">
<path d="M18.2115 7.53635C18.6366 7.11124 18.8739 6.54442 18.8739 5.94135C18.8739 5.33829 18.6399 4.77147 18.2115 4.34636L16.5308 2.66568C16.1024 2.23398 15.5356 2 14.9325 2C14.3295 2 13.7627 2.23398 13.3376 2.66238L2.85473 13.1452C2.26814 13.7318 1.95837 14.5392 2.00451 15.3663L2.00121 18.0488C2.00121 18.2663 2.08689 18.4772 2.24178 18.6321C2.39667 18.787 2.60428 18.8727 2.82507 18.8727L5.50757 18.8694C6.33472 18.9155 7.14211 18.6058 7.7287 18.0192C8.05165 17.6962 8.05165 17.1755 7.7287 16.8526C7.40575 16.5296 6.88506 16.5296 6.56211 16.8526C6.30507 17.1096 5.94586 17.2447 5.58336 17.2217C5.56689 17.2217 5.54711 17.2184 5.53064 17.2184L3.64894 17.225L3.65223 15.3433C3.65223 15.3268 3.65223 15.307 3.64894 15.2905C3.62587 14.928 3.76098 14.5688 4.01803 14.3118L12.7543 5.57556L15.2983 8.11965L8.73381 14.6842C8.41086 15.0071 8.41086 15.5278 8.73381 15.8508C9.05676 16.1737 9.57745 16.1737 9.9004 15.8508L18.2115 7.53635ZM13.9208 4.40897L14.5041 3.82568C14.6195 3.71034 14.7711 3.64772 14.9358 3.64772C15.0973 3.64772 15.2522 3.71034 15.3675 3.82568L17.0482 5.50636C17.2855 5.74363 17.2855 6.13249 17.0482 6.36976L16.4649 6.95306L13.9208 4.40897ZM18.05 17.225H10.6188C10.164 17.225 9.79494 17.5941 9.79494 18.0488C9.79494 18.5036 10.164 18.8727 10.6188 18.8727H18.05C18.5048 18.8727 18.8739 18.5036 18.8739 18.0488C18.8739 17.5941 18.5048 17.225 18.05 17.225Z" fill="#01B768"/>
</svg>
