<svg width="21" height="21" viewBox="0 0 21 21" fill="none" xmlns="http://www.w3.org/2000/svg">
<path d="M18.2695 7.59729L18.2695 7.59728C18.6768 7.19003 18.9037 6.6476 18.9037 6.07026C18.9037 5.4926 18.6798 4.95042 18.2698 4.54351L18.2695 4.54325L16.5888 2.86257L16.5886 2.86231C16.1783 2.44887 15.6361 2.22505 15.0585 2.22505C14.4809 2.22505 13.9387 2.44895 13.5318 2.85901L13.5315 2.85927L3.04869 13.3421C2.48135 13.9094 2.18187 14.6902 2.22647 15.4899L2.22678 15.4954H2.22662L2.22333 18.1777C2.22333 18.1778 2.22333 18.1778 2.22333 18.1778C2.22334 18.3702 2.29918 18.5565 2.43574 18.693L2.36776 18.761L2.43574 18.693C2.57245 18.8298 2.75555 18.9055 2.95105 18.9055L5.63343 18.9022L5.63891 18.9022L5.6389 18.9023C6.43861 18.9469 7.21936 18.6474 7.7867 18.0801C8.0721 17.7947 8.0721 17.3349 7.7867 17.0495C7.50129 16.7641 7.04148 16.7641 6.75607 17.0495C6.48006 17.3255 6.09497 17.4707 5.70588 17.4467M18.2695 7.59729L5.70934 17.3506M18.2695 7.59729L9.95839 15.9117M18.2695 7.59729L9.95838 15.9117M5.70588 17.4467C5.705 17.4466 5.70412 17.4466 5.70323 17.4465L5.70934 17.3506M5.70588 17.4467C5.70703 17.4467 5.70819 17.4467 5.70934 17.4467V17.3506M5.70588 17.4467C5.69433 17.4465 5.683 17.4455 5.6756 17.4448L5.67427 17.4447C5.66422 17.4438 5.65971 17.4434 5.65667 17.4434L5.65695 17.4434L5.65661 17.3473M5.70934 17.3506C5.7011 17.3506 5.69204 17.3498 5.68298 17.3489C5.67391 17.3481 5.66485 17.3473 5.65661 17.3473M5.65661 17.3473V17.4434M5.65661 17.3473V17.4434M5.65661 17.4434L3.77525 17.45L3.6786 17.4503L3.67877 17.3537L3.68207 15.4722H3.77821L3.68207 15.472L3.68207 15.4721L5.65661 17.4434ZM3.77491 17.3539L3.77508 17.2577L3.77458 17.2577L3.77491 17.3539ZM3.77491 17.3539L3.87105 17.354L3.87105 17.3535L3.77491 17.3539ZM9.95838 15.9117L10.0264 15.9797L9.95839 15.9117M9.95838 15.9117C9.95839 15.9117 9.95839 15.9117 9.95839 15.9117M9.95838 15.9117L9.95839 15.9117M13.9788 4.4699L13.9109 4.53788L13.9788 4.60586L16.5229 7.14994L16.5909 7.21792L16.6589 7.14994L17.2422 6.56665C17.517 6.29183 17.517 5.8421 17.2422 5.56728L15.5615 3.8866C15.4278 3.75289 15.2483 3.68049 15.0618 3.68049C14.8718 3.68049 14.6957 3.75308 14.5621 3.8866L13.9788 4.4699ZM10.7448 17.45H18.176C18.5777 17.45 18.9037 17.7761 18.9037 18.1777C18.9037 18.5794 18.5777 18.9055 18.176 18.9055H10.7448C10.3431 18.9055 10.0171 18.5794 10.0171 18.1777C10.0171 17.7761 10.3431 17.45 10.7448 17.45Z" fill="white" stroke="white" stroke-width="0.192278"/>
</svg>
