<svg width="14" height="15" viewBox="0 0 14 15" fill="none" xmlns="http://www.w3.org/2000/svg">
<path d="M6.66678 0.355228C5.7794 0.354122 4.91479 0.636006 4.19858 1.15992C3.48237 1.68383 2.95188 2.42248 2.6842 3.26852C2.41652 4.11456 2.42559 5.02392 2.71009 5.86445C2.9946 6.70498 3.53972 7.4329 4.26624 7.94242C3.00901 8.44485 1.93089 9.312 1.1706 10.4323C0.410301 11.5525 0.00261685 12.8747 0 14.2286C0.0103047 14.3961 0.0841116 14.5534 0.206373 14.6683C0.328634 14.7833 0.490143 14.8473 0.657971 14.8473C0.825799 14.8473 0.987308 14.7833 1.10957 14.6683C1.23183 14.5534 1.30564 14.3961 1.31594 14.2286C1.31374 13.2562 1.57182 12.301 2.06339 11.4621C2.55496 10.6232 3.2621 9.93107 4.11143 9.45767C4.96076 8.98427 5.9213 8.74681 6.89338 8.76995C7.86545 8.79308 8.81362 9.07595 9.63946 9.58921C9.71329 9.63495 9.79541 9.66569 9.88112 9.67969C9.96683 9.69369 10.0545 9.69067 10.139 9.67081C10.2235 9.65094 10.3033 9.61462 10.3739 9.56391C10.4444 9.5132 10.5042 9.44911 10.5499 9.37528C10.5957 9.30145 10.6264 9.21933 10.6404 9.13362C10.6544 9.04791 10.6514 8.96028 10.6315 8.87574C10.6117 8.79119 10.5753 8.71139 10.5246 8.64088C10.4739 8.57038 10.4098 8.51055 10.336 8.46482C9.95371 8.23473 9.54957 8.04308 9.12951 7.89267C10.1668 7.13395 10.846 5.91253 10.846 4.5344C10.846 2.23834 8.96283 0.355228 6.66678 0.355228ZM6.66678 1.67366C8.25138 1.67366 9.52752 2.9498 9.52752 4.5344C9.52752 6.11901 8.25138 7.39266 6.66678 7.39266C5.08217 7.39266 3.80852 6.12398 3.80852 4.5344C3.80852 2.9498 5.07969 1.67366 6.66678 1.67366ZM13.3261 9.57429C13.2192 9.57732 13.1147 9.60631 13.0215 9.65875C12.9283 9.71119 12.8493 9.7855 12.7913 9.87529L10.5226 13.2758L9.09965 12.3231C9.02762 12.2699 8.94554 12.2319 8.85839 12.2114C8.77124 12.1908 8.68084 12.1882 8.59264 12.2036C8.50444 12.2191 8.4203 12.2522 8.34529 12.3011C8.27029 12.35 8.20599 12.4136 8.15628 12.4881C8.10658 12.5626 8.07251 12.6464 8.05613 12.7344C8.03975 12.8224 8.0414 12.9129 8.06099 13.0002C8.08058 13.0876 8.11769 13.1701 8.17009 13.2427C8.22248 13.3153 8.28907 13.3765 8.36581 13.4226L10.3435 14.7386C10.489 14.835 10.6668 14.8698 10.838 14.8353C11.0092 14.8008 11.1596 14.6998 11.2564 14.5545L13.8908 10.6042C13.9592 10.5037 13.9985 10.3863 14.0043 10.2649C14.0101 10.1435 13.9823 10.0228 13.9239 9.91627C13.8654 9.8097 13.7787 9.72136 13.6732 9.66101C13.5677 9.60066 13.4476 9.57065 13.3261 9.57429Z" fill="white"/>
</svg>
