<svg width="26" height="26" viewBox="0 0 26 26" fill="none" xmlns="http://www.w3.org/2000/svg">
<g clip-path="url(#clip0_877_717)">
<path d="M21.1251 26H4.87508C4.15705 25.9991 3.46868 25.7135 2.96095 25.2058C2.45323 24.6981 2.16761 24.0097 2.16675 23.2917V2.70833C2.16675 1.2155 3.38225 0 4.87508 0H21.1251C22.6179 0 23.8334 1.2155 23.8334 2.70833V23.2917C23.8334 24.7845 22.6179 26 21.1251 26ZM4.87508 1.08333C3.97916 1.08333 3.25008 1.81242 3.25008 2.70833V23.2917C3.25008 24.1876 3.97916 24.9167 4.87508 24.9167H21.1251C22.021 24.9167 22.7501 24.1876 22.7501 23.2917V2.70833C22.7501 1.81242 22.021 1.08333 21.1251 1.08333H4.87508Z" fill="#8C8C8C" fill-opacity="0.6"/>
<path d="M12.4584 10.8333C12.3148 10.8333 12.177 10.7762 12.0754 10.6746C11.9738 10.5731 11.9167 10.4353 11.9167 10.2916V9.74996H6.50008V10.2916C6.50008 10.4353 6.44301 10.5731 6.34143 10.6746C6.23985 10.7762 6.10207 10.8333 5.95841 10.8333C5.81476 10.8333 5.67698 10.7762 5.5754 10.6746C5.47382 10.5731 5.41675 10.4353 5.41675 10.2916V9.20829C5.41675 9.06463 5.47382 8.92686 5.5754 8.82528C5.67698 8.72369 5.81476 8.66663 5.95841 8.66663H12.4584C12.6021 8.66663 12.7398 8.72369 12.8414 8.82528C12.943 8.92686 13.0001 9.06463 13.0001 9.20829V10.2916C13.0001 10.4353 12.943 10.5731 12.8414 10.6746C12.7398 10.7762 12.6021 10.8333 12.4584 10.8333Z" fill="#8C8C8C" fill-opacity="0.6"/>
<path d="M9.20841 16.25C9.06476 16.25 8.92698 16.1929 8.8254 16.0913C8.72382 15.9897 8.66675 15.852 8.66675 15.7083V9.20829C8.66675 9.06463 8.72382 8.92686 8.8254 8.82528C8.92698 8.72369 9.06476 8.66663 9.20841 8.66663C9.35207 8.66663 9.48985 8.72369 9.59143 8.82528C9.69301 8.92686 9.75008 9.06463 9.75008 9.20829V15.7083C9.75008 15.852 9.69301 15.9897 9.59143 16.0913C9.48985 16.1929 9.35207 16.25 9.20841 16.25Z" fill="#8C8C8C" fill-opacity="0.6"/>
<path d="M10.2917 16.25H8.12508C7.98142 16.25 7.84365 16.1929 7.74207 16.0913C7.64048 15.9897 7.58341 15.852 7.58341 15.7083C7.58341 15.5646 7.64048 15.4269 7.74207 15.3253C7.84365 15.2237 7.98142 15.1666 8.12508 15.1666H10.2917C10.4354 15.1666 10.5732 15.2237 10.6748 15.3253C10.7763 15.4269 10.8334 15.5646 10.8334 15.7083C10.8334 15.852 10.7763 15.9897 10.6748 16.0913C10.5732 16.1929 10.4354 16.25 10.2917 16.25ZM20.0417 9.74996H15.7084C15.5648 9.74996 15.427 9.69289 15.3254 9.59131C15.2238 9.48973 15.1667 9.35195 15.1667 9.20829C15.1667 9.06463 15.2238 8.92686 15.3254 8.82528C15.427 8.72369 15.5648 8.66663 15.7084 8.66663H20.0417C20.1854 8.66663 20.3232 8.72369 20.4248 8.82528C20.5263 8.92686 20.5834 9.06463 20.5834 9.20829C20.5834 9.35195 20.5263 9.48973 20.4248 9.59131C20.3232 9.69289 20.1854 9.74996 20.0417 9.74996ZM20.0417 13H15.7084C15.5648 13 15.427 12.9429 15.3254 12.8413C15.2238 12.7397 15.1667 12.602 15.1667 12.4583C15.1667 12.3146 15.2238 12.1769 15.3254 12.0753C15.427 11.9737 15.5648 11.9166 15.7084 11.9166H20.0417C20.1854 11.9166 20.3232 11.9737 20.4248 12.0753C20.5263 12.1769 20.5834 12.3146 20.5834 12.4583C20.5834 12.602 20.5263 12.7397 20.4248 12.8413C20.3232 12.9429 20.1854 13 20.0417 13ZM20.0417 16.25H15.7084C15.5648 16.25 15.427 16.1929 15.3254 16.0913C15.2238 15.9897 15.1667 15.852 15.1667 15.7083C15.1667 15.5646 15.2238 15.4269 15.3254 15.3253C15.427 15.2237 15.5648 15.1666 15.7084 15.1666H20.0417C20.1854 15.1666 20.3232 15.2237 20.4248 15.3253C20.5263 15.4269 20.5834 15.5646 20.5834 15.7083C20.5834 15.852 20.5263 15.9897 20.4248 16.0913C20.3232 16.1929 20.1854 16.25 20.0417 16.25ZM20.0417 19.5H5.95841C5.81476 19.5 5.67698 19.4429 5.5754 19.3413C5.47382 19.2397 5.41675 19.102 5.41675 18.9583C5.41675 18.8146 5.47382 18.6769 5.5754 18.5753C5.67698 18.4737 5.81476 18.4166 5.95841 18.4166H20.0417C20.1854 18.4166 20.3232 18.4737 20.4248 18.5753C20.5263 18.6769 20.5834 18.8146 20.5834 18.9583C20.5834 19.102 20.5263 19.2397 20.4248 19.3413C20.3232 19.4429 20.1854 19.5 20.0417 19.5ZM20.0417 22.75H5.95841C5.81476 22.75 5.67698 22.6929 5.5754 22.5913C5.47382 22.4897 5.41675 22.352 5.41675 22.2083C5.41675 22.0646 5.47382 21.9269 5.5754 21.8253C5.67698 21.7237 5.81476 21.6666 5.95841 21.6666H20.0417C20.1854 21.6666 20.3232 21.7237 20.4248 21.8253C20.5263 21.9269 20.5834 22.0646 20.5834 22.2083C20.5834 22.352 20.5263 22.4897 20.4248 22.5913C20.3232 22.6929 20.1854 22.75 20.0417 22.75Z" fill="#8C8C8C" fill-opacity="0.6"/>
</g>
<defs>
<clipPath id="clip0_877_717">
<rect width="26" height="26" fill="white"/>
</clipPath>
</defs>
</svg>
