<svg width="23" height="24" viewBox="0 0 23 24" fill="none" xmlns="http://www.w3.org/2000/svg">
<path d="M2.82795 17.8232L4.31738 4.07324L1.39603 4.40103C0.994609 4.43763 0.623678 4.63061 0.363308 4.93832C0.102938 5.24603 -0.0259874 5.64379 0.00436149 6.04573L1.74682 22.1477C1.7702 22.3469 1.83372 22.5393 1.93355 22.7132C2.03338 22.8872 2.16744 23.0391 2.32764 23.1598C2.6658 23.4219 3.09293 23.5416 3.51804 23.4933L16.6009 22.0154L5.23749 20.733C4.53341 20.6635 3.88524 20.3188 3.434 19.7739C2.98276 19.2289 2.76495 18.5279 2.82795 17.8232Z" fill="#6F767E"/>
<path d="M3.97213 17.9496C3.94179 18.3516 4.07071 18.7493 4.33108 19.057C4.59145 19.3647 4.96238 19.5577 5.3638 19.5943L19.4818 21.1815C19.6968 21.2074 19.9148 21.1902 20.1231 21.1309C20.3314 21.0717 20.5259 20.9716 20.6952 20.8365C20.8485 20.7168 20.9764 20.5676 21.0712 20.3978C21.166 20.2279 21.2259 20.0407 21.2472 19.8474L21.4657 17.8289L4.19641 15.8794L3.97213 17.9496ZM18.7917 5.76965L8.90623 15.2583L21.5923 16.6845L22.2133 10.9223L22.1961 10.905L18.7917 5.76965ZM11.7988 10.8878L10.1196 8.34021L4.4782 13.3031L4.32293 14.7407L7.4168 15.0858L11.7988 10.8878Z" fill="#6F767E"/>
<path d="M21.6041 2.09494L7.48619 0.507749C7.42293 0.501998 7.35392 0.496247 7.29066 0.496247C6.91862 0.493935 6.55714 0.619845 6.26704 0.85279C5.96108 1.0979 5.76298 1.45283 5.71497 1.84191L4.6626 11.6123L9.36091 7.47759C9.48436 7.36902 9.62965 7.28817 9.78699 7.2405C9.94432 7.19283 10.1101 7.17944 10.273 7.20124C10.4359 7.22304 10.5923 7.27952 10.7316 7.36687C10.8709 7.45422 10.9898 7.57041 11.0804 7.70762L12.6446 10.0769L17.9985 4.94153C18.1192 4.82448 18.2642 4.73546 18.4232 4.68079C18.5823 4.62613 18.7514 4.60716 18.9186 4.62525C19.0858 4.64463 19.2469 4.69987 19.3908 4.78721C19.5347 4.87455 19.658 4.99192 19.7524 5.13131L22.4092 9.13954L22.9958 3.73964C23.0262 3.3377 22.8972 2.93994 22.6369 2.63223C22.3765 2.32452 22.0056 2.13154 21.6041 2.09494ZM12.9378 5.67187C12.7672 5.67187 12.6005 5.62128 12.4586 5.5265C12.3168 5.43171 12.2062 5.29699 12.1409 5.13937C12.0756 4.98175 12.0585 4.80831 12.0918 4.64098C12.1251 4.47365 12.2073 4.31995 12.3279 4.19932C12.4485 4.07868 12.6022 3.99652 12.7696 3.96324C12.9369 3.92995 13.1103 3.94704 13.268 4.01233C13.4256 4.07761 13.5603 4.18818 13.6551 4.33003C13.7499 4.47189 13.8005 4.63866 13.8005 4.80927C13.8006 4.92259 13.7784 5.03483 13.7351 5.13955C13.6918 5.24428 13.6283 5.33943 13.5481 5.41956C13.468 5.49969 13.3729 5.56322 13.2681 5.60652C13.1634 5.64982 13.0512 5.67202 12.9378 5.67187Z" fill="#6F767E"/>
</svg>
