<svg width="25" height="25" viewBox="0 0 25 25" fill="none" xmlns="http://www.w3.org/2000/svg">
<g clip-path="url(#clip0_478_988)">
<circle cx="12.5" cy="12.5" r="8" stroke="black"/>
<path d="M11.8639 14.3446V14.2959C11.8688 13.7785 11.917 13.3668 12.0085 13.0607C12.1001 12.7546 12.2302 12.5068 12.3988 12.3172C12.5675 12.1275 12.7698 11.9528 13.006 11.793C13.1481 11.6955 13.2758 11.5804 13.389 11.4477C13.5023 11.3122 13.5914 11.1565 13.6565 10.9804C13.7239 10.8043 13.7577 10.6093 13.7577 10.3953C13.7577 10.1299 13.7022 9.89962 13.5914 9.70459C13.4806 9.50956 13.3324 9.35923 13.1469 9.25358C12.9614 9.14794 12.7554 9.09512 12.5289 9.09512C12.3313 9.09512 12.141 9.14117 11.9579 9.23327C11.7748 9.32537 11.6218 9.47028 11.4989 9.66802C11.3761 9.86576 11.305 10.1244 11.2857 10.4441H10.375C10.3943 9.98359 10.5003 9.58947 10.693 9.26171C10.8882 8.93395 11.1448 8.6834 11.4628 8.51004C11.7832 8.33668 12.1386 8.25 12.5289 8.25C12.9529 8.25 13.3216 8.34481 13.6348 8.53442C13.9504 8.72403 14.1937 8.98407 14.3648 9.31453C14.5383 9.645 14.625 10.0215 14.625 10.4441C14.625 10.742 14.584 11.0116 14.5021 11.2526C14.4226 11.4937 14.307 11.7091 14.1552 11.8987C14.0058 12.0883 13.8251 12.2562 13.6131 12.4025C13.4011 12.5515 13.2312 12.7086 13.1035 12.8738C12.9758 13.0363 12.8831 13.23 12.8253 13.4548C12.7674 13.6797 12.7361 13.96 12.7313 14.2959V14.3446H11.8639ZM12.3265 16.75C12.1482 16.75 11.9953 16.6782 11.8676 16.5347C11.7399 16.3911 11.676 16.2191 11.676 16.0186C11.676 15.8182 11.7399 15.6462 11.8676 15.5026C11.9953 15.3591 12.1482 15.2873 12.3265 15.2873C12.5048 15.2873 12.6578 15.3591 12.7855 15.5026C12.9132 15.6462 12.977 15.8182 12.977 16.0186C12.977 16.1514 12.9469 16.2733 12.8867 16.3843C12.8289 16.4954 12.7506 16.5848 12.6518 16.6525C12.5554 16.7175 12.447 16.75 12.3265 16.75Z" fill="black"/>
</g>
<defs>
<clipPath id="clip0_478_988">
<rect width="25" height="25" fill="white"/>
</clipPath>
</defs>
</svg>
