<svg width="21" height="23" viewBox="0 0 21 23" fill="none" xmlns="http://www.w3.org/2000/svg">
<path d="M4.22184 21.2218H16.7787C18.0233 21.2218 19.0569 20.168 19.0569 18.8107V8.66187C19.0569 7.96327 18.7562 7.29889 18.221 6.8441C18.221 6.84405 18.2209 6.844 18.2208 6.84394L11.9437 1.4524C11.9435 1.45229 11.9434 1.45218 11.9433 1.45207C11.1048 0.715953 9.89559 0.715978 9.05717 1.45214C9.05706 1.45223 9.05696 1.45232 9.05686 1.4524L2.77968 6.87744C2.77958 6.87752 2.77948 6.87761 2.77938 6.87769C2.24426 7.33248 1.94361 7.99682 1.94361 8.69536V18.8442C1.94361 20.1689 2.97818 21.2218 4.22184 21.2218ZM9.98843 2.64207C10.1279 2.5257 10.328 2.4649 10.5003 2.4649C10.6725 2.4649 10.8726 2.5257 11.0121 2.64207C11.0123 2.64224 11.0125 2.6424 11.0127 2.64257L17.2896 8.06737C17.2896 8.06741 17.2897 8.06745 17.2897 8.06749C17.4607 8.21652 17.5756 8.45718 17.5756 8.69536V18.8442C17.5756 19.3268 17.2021 19.682 16.7787 19.682H4.22184C3.77096 19.682 3.42492 19.298 3.42492 18.8442V8.69536C3.42492 8.45716 3.53989 8.21648 3.71085 8.06745C3.71088 8.06743 3.71091 8.0674 3.71094 8.06737L9.98843 2.64207Z" fill="#01B768" stroke="#01B768" stroke-width="0.2"/>
<path d="M6.65663 18.2743H14.3445C14.7562 18.2743 15.0852 17.9238 15.0852 17.5044C15.0852 17.0849 14.7562 16.7345 14.3445 16.7345H6.65663C6.24488 16.7345 5.91598 17.0849 5.91598 17.5044C5.91598 17.9238 6.24488 18.2743 6.65663 18.2743Z" fill="#01B768" stroke="#01B768" stroke-width="0.2"/>
</svg>
