<svg width="18" height="17" viewBox="0 0 18 17" fill="none" xmlns="http://www.w3.org/2000/svg">
<path d="M6.13691 15.6564L6.13689 15.6564L6.13904 15.6569C6.96055 15.849 7.74498 15.9323 8.55969 15.9041C10.1888 15.8476 11.7352 15.3523 13.1289 14.3842C15.2545 12.9859 16.7393 10.7642 17.2931 8.13512C17.8469 5.50601 17.4138 2.80038 16.0788 0.530143L16.0789 0.530105L16.0774 0.527817C15.9897 0.395907 15.823 0.361334 15.6704 0.45097L15.6703 0.450885L15.6677 0.452648L0.414164 10.7515L0.414102 10.7514L0.411488 10.7534C0.293516 10.845 0.25824 11.0203 0.343355 11.1503C0.994283 12.3035 1.84385 13.3037 2.88986 14.077C3.867 14.8159 4.9717 15.3292 6.13691 15.6564ZM6.27998 15.0434L6.27963 15.0433C4.09287 14.505 2.20641 13.095 0.993565 11.1201L15.7323 1.14982C16.8588 3.21081 17.2029 5.61894 16.7177 7.98483C16.1988 10.4793 14.8256 12.5645 12.8556 13.8695L12.855 13.8699C10.8863 15.2112 8.54998 15.6194 6.27998 15.0434Z" fill="#8C8C8C" stroke="#8C8C8C" stroke-width="0.1"/>
<path d="M1.91529 10.0963L1.91539 10.0963L1.91351 10.0935C1.82938 9.96684 1.66257 9.92244 1.53754 10.0171C1.38444 10.1088 1.34687 10.2858 1.43323 10.4174C3.02349 13.1582 5.7594 14.6105 8.54539 14.5139C9.8707 14.468 11.2507 14.0517 12.4806 13.2358L12.4806 13.2358L12.4814 13.2352C14.2739 11.9951 15.5666 10.0732 16.0318 7.81253C16.4968 5.5534 16.1457 3.24799 14.9913 1.30082C14.95 1.21989 14.8883 1.16558 14.8176 1.14472C14.747 1.12387 14.6728 1.13818 14.6118 1.18429C14.5359 1.22976 14.4876 1.29664 14.47 1.37443C14.4523 1.45238 14.4662 1.53706 14.5067 1.6173L14.5066 1.61734L14.5081 1.61993C16.6873 5.36466 15.6493 10.3478 12.1735 12.7223C11.0258 13.4887 9.76393 13.8593 8.52419 13.9023C5.94424 13.9917 3.38103 12.6639 1.91529 10.0963Z" fill="#8C8C8C" stroke="#8C8C8C" stroke-width="0.1"/>
<path d="M4.2088 11.2484C4.04004 11.2543 3.86875 11.187 3.72868 11.0455C3.55359 10.8686 3.47722 10.6151 3.53712 10.3934C3.56327 10.173 3.69321 10.0221 3.89192 9.90542L4.72429 9.54721C4.79179 9.54487 4.89304 9.54136 4.96308 9.61213C5.03311 9.68289 5.07066 9.79137 5.03945 9.86564L4.76736 10.7899C4.67371 11.0128 4.54377 11.1636 4.34253 11.2072C4.31005 11.2449 4.24255 11.2473 4.2088 11.2484ZM4.41085 10.2534L4.04466 10.4125C4.0109 10.4136 3.97842 10.4513 3.97969 10.4879C3.98095 10.5244 3.98349 10.5975 4.05352 10.6683C4.12356 10.7391 4.19106 10.7367 4.22481 10.7356C4.23722 10.7212 4.24981 10.7121 4.26057 10.7043C4.27797 10.6918 4.29056 10.6827 4.28978 10.6601L4.41085 10.2534ZM6.89837 12.802L6.72962 12.8079C6.52458 12.7418 6.31574 12.566 6.23937 12.3125C6.16427 12.0956 6.19042 11.8751 6.35284 11.6865L6.93502 10.9344C6.99999 10.859 7.06622 10.8201 7.16874 10.8531C7.23751 10.8873 7.30754 10.9581 7.3451 11.0666L7.54679 12.011C7.58814 12.2292 7.49449 12.452 7.36455 12.6029C7.23461 12.7538 7.06713 12.7962 6.89837 12.802ZM6.70301 12.0403C6.70301 12.0403 6.67053 12.078 6.70682 12.1499C6.70935 12.223 6.77938 12.2938 6.84689 12.2915C6.91565 12.3257 6.98189 12.2868 7.01437 12.2491C7.08061 12.2102 7.07934 12.1736 7.07681 12.1005L6.9941 11.6642L6.70301 12.0403ZM9.9697 12.6956C9.8347 12.7002 9.66468 12.6695 9.55963 12.5634C9.3858 12.423 9.27568 12.1707 9.30183 11.9502L9.43765 10.994C9.4676 10.8832 9.53257 10.8078 9.59881 10.7689C9.70006 10.7654 9.80131 10.7619 9.8376 10.8338L10.4704 11.5438L10.5055 11.5791C10.6131 11.7584 10.6544 11.9765 10.5945 12.1982C10.5346 12.4198 10.3384 12.6096 10.1385 12.6897L9.9697 12.6956ZM9.77688 12.0069C9.77941 12.08 9.81443 12.1154 9.84945 12.1508C9.88447 12.1862 9.95324 12.2204 9.98572 12.1827C10.0532 12.1803 10.1182 12.1049 10.1494 12.0306L10.1443 11.8844L9.82918 11.566L9.77688 12.0069ZM12.579 10.9583C12.5115 10.9607 12.4778 10.9619 12.409 10.9276C12.2052 10.8981 12.0652 10.7566 11.9563 10.5408L11.6209 9.63754C11.6183 9.56444 11.6145 9.45479 11.6795 9.37934C11.7445 9.3039 11.8445 9.26384 11.9132 9.29805L12.8022 9.5966L12.8359 9.59543C13.0072 9.66268 13.1135 9.80538 13.1886 10.0223C13.2637 10.2393 13.2051 10.4975 13.0764 10.6849L13.0439 10.7227C12.914 10.8736 12.7478 10.9525 12.579 10.9583ZM12.2735 9.94428L12.4237 10.3782C12.4245 10.4008 12.4377 10.409 12.456 10.4203C12.4672 10.4273 12.4804 10.4355 12.4938 10.449C12.5613 10.4466 12.6288 10.4443 12.6938 10.3689C12.7262 10.3311 12.7562 10.2203 12.7199 10.1484C12.7199 10.1484 12.7186 10.1118 12.6849 10.113L12.2735 9.94428ZM14.0328 8.05355C13.8977 8.05823 13.7602 7.98981 13.6214 7.88484L12.9249 7.28686C12.8561 7.25265 12.8523 7.143 12.8485 7.03334C12.8797 6.95907 12.9447 6.88363 13.0447 6.84357L13.9158 6.6304C14.0833 6.588 14.2884 6.65408 14.4284 6.79561C14.6023 6.93596 14.6461 7.2272 14.6213 7.48423C14.5614 7.70588 14.4002 7.93103 14.2002 8.01115C14.1607 8.01252 14.1216 8.02644 14.0892 8.03796C14.0663 8.04611 14.0467 8.05307 14.0328 8.05355ZM13.6324 7.22575L13.9462 7.50763C13.9813 7.54301 14.015 7.54184 14.0475 7.50412C14.0813 7.50295 14.1475 7.46406 14.1437 7.3544C14.1749 7.28013 14.1374 7.17165 14.1023 7.13627C14.1023 7.13627 14.0673 7.10089 14.0348 7.13861L14.0011 7.13978L13.6324 7.22575ZM13.95 4.68968L13.8487 4.69319L12.9648 4.54085C12.8623 4.50781 12.7923 4.43704 12.756 4.36511C12.7522 4.25546 12.7484 4.1458 12.8146 4.10691L13.4681 3.46215C13.6318 3.3101 13.8318 3.22998 14.0368 3.29606C14.2419 3.36214 14.4182 3.5756 14.4933 3.79257C14.5359 4.04726 14.5123 4.34084 14.3486 4.49289C14.2524 4.6426 14.1187 4.68383 13.95 4.68968ZM13.5247 4.1189L13.8985 4.17914L13.9997 4.17563C14.0322 4.1379 14.0622 4.02708 14.0259 3.95515C14.0221 3.8455 13.9533 3.81128 13.9196 3.81245C13.8845 3.77707 13.8508 3.77824 13.8183 3.81596L13.5247 4.1189Z" fill="#8C8C8C"/>
<path d="M4.2088 11.2484C4.04004 11.2543 3.86875 11.187 3.72868 11.0455C3.55359 10.8686 3.47722 10.6151 3.53712 10.3934C3.56327 10.173 3.69321 10.0221 3.89192 9.90542L4.72429 9.54721C4.79179 9.54487 4.89304 9.54136 4.96308 9.61213C5.03311 9.68289 5.07066 9.79137 5.03945 9.86564L4.76736 10.7899C4.67371 11.0128 4.54377 11.1636 4.34253 11.2072C4.31005 11.2449 4.24255 11.2473 4.2088 11.2484ZM4.41085 10.2534L4.04466 10.4125C4.0109 10.4136 3.97842 10.4513 3.97969 10.4879C3.98095 10.5244 3.98349 10.5975 4.05352 10.6683C4.12356 10.7391 4.19106 10.7367 4.22481 10.7356C4.23722 10.7212 4.24981 10.7121 4.26057 10.7043C4.27797 10.6918 4.29056 10.6827 4.28978 10.6601L4.41085 10.2534ZM6.89837 12.802L6.72962 12.8079C6.52458 12.7418 6.31574 12.566 6.23937 12.3125C6.16427 12.0956 6.19042 11.8751 6.35284 11.6865L6.93502 10.9344C6.99999 10.859 7.06622 10.8201 7.16874 10.8531C7.23751 10.8873 7.30754 10.9581 7.3451 11.0666L7.54679 12.011C7.58814 12.2292 7.49449 12.452 7.36455 12.6029C7.23461 12.7538 7.06713 12.7962 6.89837 12.802ZM6.70301 12.0403C6.70301 12.0403 6.67053 12.078 6.70682 12.1499C6.70935 12.223 6.77938 12.2938 6.84689 12.2915C6.91565 12.3257 6.98189 12.2868 7.01437 12.2491C7.08061 12.2102 7.07934 12.1736 7.07681 12.1005L6.9941 11.6642L6.70301 12.0403ZM9.9697 12.6956C9.8347 12.7002 9.66468 12.6695 9.55963 12.5634C9.3858 12.423 9.27568 12.1707 9.30183 11.9502L9.43765 10.994C9.4676 10.8832 9.53257 10.8078 9.59881 10.7689C9.70006 10.7654 9.80131 10.7619 9.8376 10.8338L10.4704 11.5438L10.5055 11.5791C10.6131 11.7584 10.6544 11.9765 10.5945 12.1982C10.5346 12.4198 10.3384 12.6096 10.1385 12.6897L9.9697 12.6956ZM9.77688 12.0069C9.77941 12.08 9.81443 12.1154 9.84945 12.1508C9.88447 12.1862 9.95324 12.2204 9.98572 12.1827C10.0532 12.1803 10.1182 12.1049 10.1494 12.0306L10.1443 11.8844L9.82918 11.566L9.77688 12.0069ZM12.579 10.9583C12.5115 10.9607 12.4778 10.9619 12.409 10.9276C12.2052 10.8981 12.0652 10.7566 11.9563 10.5408L11.6209 9.63754C11.6183 9.56444 11.6145 9.45479 11.6795 9.37934C11.7445 9.3039 11.8445 9.26384 11.9132 9.29805L12.8022 9.5966L12.8359 9.59543C13.0072 9.66268 13.1135 9.80538 13.1886 10.0223C13.2637 10.2393 13.2051 10.4975 13.0764 10.6849L13.0439 10.7227C12.914 10.8736 12.7478 10.9525 12.579 10.9583ZM12.2735 9.94428L12.4237 10.3782C12.4245 10.4008 12.4377 10.409 12.456 10.4203C12.4672 10.4273 12.4804 10.4355 12.4938 10.449C12.5613 10.4466 12.6288 10.4443 12.6938 10.3689C12.7262 10.3311 12.7562 10.2203 12.7199 10.1484C12.7199 10.1484 12.7186 10.1118 12.6849 10.113L12.2735 9.94428ZM14.0328 8.05355C13.8977 8.05823 13.7602 7.98981 13.6214 7.88484L12.9249 7.28686C12.8561 7.25265 12.8523 7.143 12.8485 7.03334C12.8797 6.95907 12.9447 6.88363 13.0447 6.84357L13.9158 6.6304C14.0833 6.588 14.2884 6.65408 14.4284 6.79561C14.6023 6.93596 14.6461 7.2272 14.6213 7.48423C14.5614 7.70588 14.4002 7.93103 14.2002 8.01115C14.1607 8.01252 14.1216 8.02644 14.0892 8.03796C14.0663 8.04611 14.0467 8.05307 14.0328 8.05355ZM13.6324 7.22575L13.9462 7.50763C13.9813 7.54301 14.015 7.54184 14.0475 7.50412C14.0813 7.50295 14.1475 7.46406 14.1437 7.3544C14.1749 7.28013 14.1374 7.17165 14.1023 7.13627C14.1023 7.13627 14.0673 7.10089 14.0348 7.13861L14.0011 7.13978L13.6324 7.22575ZM13.95 4.68968L13.8487 4.69319L12.9648 4.54085C12.8623 4.50781 12.7923 4.43704 12.756 4.36511C12.7522 4.25546 12.7484 4.1458 12.8146 4.10691L13.4681 3.46215C13.6318 3.3101 13.8318 3.22998 14.0368 3.29606C14.2419 3.36214 14.4182 3.5756 14.4933 3.79257C14.5359 4.04726 14.5123 4.34084 14.3486 4.49289C14.2524 4.6426 14.1187 4.68383 13.95 4.68968ZM13.5247 4.1189L13.8985 4.17914L13.9997 4.17563C14.0322 4.1379 14.0622 4.02708 14.0259 3.95515C14.0221 3.8455 13.9533 3.81128 13.9196 3.81245C13.8845 3.77707 13.8508 3.77824 13.8183 3.81596L13.5247 4.1189Z" stroke="#8C8C8C"/>
</svg>
