<?xml version="1.0" encoding="utf-8"?>
<!-- Generator: Adobe Illustrator 22.0.1, SVG Export Plug-In . SVG Version: 6.00 Build 0)  -->
<svg version="1.1" id="Layer_1" xmlns="http://www.w3.org/2000/svg" xmlns:xlink="http://www.w3.org/1999/xlink" x="0px" y="0px"
	 viewBox="0 0 25 25" style="enable-background:new 0 0 25 25;" xml:space="preserve">
<path d="M20.8,10.9c-0.3-1.8-1.2-3.3-2.5-4.6c-0.2-0.2-0.5-0.4-0.7-0.6l0,0c-0.1-0.1-0.2-0.1-0.3-0.1c-0.1,0-0.2,0.1-0.3,0.2
	c-0.2,0.2-0.1,0.5,0.1,0.6c0,0,0,0,0.1,0.1c0,0,0,0,0.1,0c1.7,1.3,2.7,3.1,2.9,5.2c0.1,1.1,0,2.2-0.3,3.2c-1.3,3.9-5.4,6-9.3,4.9
	c-3.1-0.8-5.2-3.5-5.5-6.6C4.8,11.7,5,10.3,5.7,9C6.2,8,7,7.1,7.9,6.4C8,6.3,8.1,6.2,8.1,6.1c0.1-0.2,0-0.3-0.2-0.5
	C7.8,5.5,7.6,5.6,7.4,5.7C5.3,7.4,4.1,9.6,4,12.2v0c0,1.5,0.3,2.7,0.8,3.9c0.9,1.9,2.5,3.4,4.5,4.2c1,0.4,2.1,0.6,3.2,0.6
	c1,0,2-0.2,2.9-0.5C19.3,19,21.6,15,20.8,10.9z"/>
<path d="M9.4,7.8c0.2,0.1,0.4,0,0.5-0.2c0.3-0.3,0.6-0.6,0.9-0.9c0.3-0.3,0.5-0.5,0.8-0.8c0.1-0.1,0.2-0.2,0.4-0.4
	c0,0,0.1-0.1,0.1-0.1v7.6c0,0,0,0,0,0c0,0,0,0.1,0,0.1c0,0.2,0.2,0.4,0.4,0.4c0,0,0,0,0,0c0.2,0,0.4-0.1,0.4-0.3c0-0.1,0-0.2,0-0.2
	v0c0-2.2,0-4.3,0-6.5V5.5c0,0,0,0,0,0c0.3,0.3,0.5,0.5,0.8,0.8c0.4,0.4,0.9,0.9,1.3,1.3c0.1,0.1,0.2,0.2,0.4,0.2c0,0,0,0,0,0
	c0.1,0,0.2,0,0.3-0.1c0.2-0.2,0.2-0.4,0-0.6c-0.9-0.9-1.9-1.9-2.9-2.9C12.7,4.1,12.6,4,12.5,4c-0.1,0-0.2,0.1-0.3,0.2
	C11.2,5.1,10.3,6.1,9.3,7l0,0c0,0-0.1,0.1-0.1,0.1C9.1,7.2,9.1,7.4,9.1,7.5C9.2,7.6,9.3,7.7,9.4,7.8z"/>
</svg>
