<svg width="24" height="30" viewBox="0 0 24 30" fill="none" xmlns="http://www.w3.org/2000/svg">
<path d="M0.742742 10.0747H0.892742V9.9958H8.23785H8.38785V9.8458V5.82211C8.38785 5.72127 8.40448 5.64394 8.4341 5.57731C8.464 5.51003 8.51057 5.44595 8.58061 5.37591L9.60625 4.35026L9.67806 4.27845L9.63806 4.18511C9.19761 3.15739 9.63139 1.95824 10.4741 1.11553C11.618 -0.028327 13.3337 -0.148734 14.2045 0.718754C15.0113 1.60176 15.0997 3.24195 13.8155 4.45055L13.8155 4.4505L13.8123 4.45371C12.9696 5.29643 11.7704 5.73021 10.7427 5.28976L10.6494 5.24976L10.5776 5.32157L9.7886 6.11053L9.74467 6.15446V6.21659V9.8458V9.9958H9.89466H22.9914C23.162 9.9958 23.3576 10.1133 23.4977 10.3235C23.621 10.5084 23.6279 10.7681 23.5619 10.9735L19.7796 18.9319C19.7098 19.0712 19.6271 19.1668 19.5354 19.2279C19.4443 19.2886 19.3359 19.3211 19.2044 19.3211H17.8631H17.7132V19.4711V28.3074V28.4574H17.8631H20.6245C20.8271 28.4574 20.9843 28.5243 21.0904 28.6305C21.1966 28.7366 21.2635 28.8938 21.2635 29.0964C21.2635 29.299 21.1966 29.4562 21.0904 29.5623C20.9843 29.6685 20.8271 29.7354 20.6245 29.7354H3.18851C2.98591 29.7354 2.82874 29.6685 2.72259 29.5623C2.61644 29.4562 2.54956 29.299 2.54956 29.0964C2.54956 28.8938 2.61644 28.7366 2.72259 28.6305C2.82874 28.5243 2.98591 28.4574 3.18851 28.4574H5.94987H6.09987V28.3074V19.55V19.4H5.94987H4.60864C4.37557 19.4 4.17997 19.2254 4.02897 19.0017L0.172243 11.0522C0.1458 10.9663 0.143896 10.8577 0.161448 10.7349C0.179354 10.6095 0.21572 10.4811 0.253878 10.3666C0.277891 10.2946 0.344069 10.2208 0.443568 10.1627C0.542071 10.1053 0.654329 10.0747 0.742742 10.0747ZM13.3933 1.61346L13.3937 1.61302L13.3832 1.60429C13.0949 1.36401 12.7217 1.35046 12.3787 1.44692C12.0352 1.54354 11.6977 1.7556 11.4454 2.00794C11.1942 2.25915 10.9629 2.61483 10.856 2.95684C10.7528 3.28733 10.7498 3.67416 11.067 3.89107C11.3545 4.12651 11.7249 4.1392 12.0655 4.04342C12.409 3.9468 12.7464 3.73474 12.9988 3.4824C13.2509 3.2303 13.4627 2.89329 13.5594 2.56017C13.6551 2.23056 13.6465 1.86667 13.3933 1.61346ZM16.2852 28.4574H16.4352V28.3074V19.4711V19.3211H16.2852H7.52779H7.37779V19.4711V28.3074V28.4574H7.52779H16.2852ZM18.6521 18.0432H18.7453L18.7866 17.9596L21.9424 11.569L22.0493 11.3526H21.8079H2.00508H1.76637L1.86993 11.5677L4.94687 17.9583L4.98776 18.0432H5.08202H18.6521Z" fill="#8C8C8C" stroke="white" stroke-width="0.3"/>
</svg>
