<svg width="14" height="14" viewBox="0 0 14 14" fill="none" xmlns="http://www.w3.org/2000/svg">
<path d="M4.0348 12.0579C4.4478 11.8759 4.9098 11.8416 5.3424 11.9606C5.8814 12.1076 6.4379 12.1818 7 12.1804C10.2095 12.1804 12.6 9.87946 12.6 6.79025C12.6 3.70103 10.2095 1.40005 7 1.40005C3.7905 1.40005 1.4 3.70103 1.4 6.79025C1.4 8.3793 2.0272 9.78075 3.1262 10.7636C3.32588 10.9405 3.48736 11.1562 3.60074 11.3977C3.71412 11.6392 3.77703 11.9012 3.7856 12.1678L4.0348 12.0579ZM7 0C10.9438 0 14 2.889 14 6.79025C14 10.6915 10.9438 13.5805 7 13.5805C6.3155 13.5822 5.63387 13.4918 4.9735 13.3117C4.84946 13.2776 4.71747 13.2872 4.5997 13.339L3.2109 13.9522C3.12699 13.9893 3.03526 14.0052 2.94376 13.9985C2.85227 13.9918 2.76381 13.9628 2.68618 13.9139C2.60855 13.865 2.54411 13.7978 2.49853 13.7182C2.45295 13.6386 2.42764 13.549 2.4248 13.4573L2.3863 12.2112C2.38378 12.1355 2.36584 12.061 2.33359 11.9924C2.30133 11.9238 2.25544 11.8625 2.1987 11.8122C0.8365 10.5949 0 8.83222 0 6.79025C0 2.889 3.0569 0 7 0ZM2.7965 8.77622L4.8524 5.5141C4.92975 5.39128 5.03173 5.28584 5.15189 5.20442C5.27204 5.123 5.40778 5.06738 5.55052 5.04107C5.69325 5.01476 5.8399 5.01833 5.98118 5.05155C6.12247 5.08477 6.25534 5.14693 6.3714 5.23409L8.0066 6.45914C8.07949 6.51416 8.16833 6.54393 8.25965 6.54393C8.35098 6.54393 8.43981 6.51416 8.5127 6.45914L10.7212 4.78187C11.0159 4.55857 11.4009 4.91138 11.2035 5.22499L9.1476 8.48711C9.07025 8.60992 8.96827 8.71537 8.84811 8.79679C8.72795 8.8782 8.59222 8.93382 8.44948 8.96014C8.30675 8.98645 8.1601 8.98288 8.01882 8.94966C7.87753 8.91644 7.74466 8.85428 7.6286 8.76712L5.9934 7.54207C5.92051 7.48705 5.83168 7.45728 5.74035 7.45728C5.64902 7.45728 5.56019 7.48705 5.4873 7.54207L3.2788 9.21863C2.9841 9.44194 2.5991 9.08913 2.7965 8.77552V8.77622Z" fill="white"/>
</svg>
