<?xml version="1.0" encoding="utf-8"?>
<!-- Generator: Adobe Illustrator 22.0.1, SVG Export Plug-In . SVG Version: 6.00 Build 0)  -->
<svg version="1.1" id="Layer_1" xmlns="http://www.w3.org/2000/svg" xmlns:xlink="http://www.w3.org/1999/xlink" x="0px" y="0px"
	 viewBox="0 0 25 25" style="enable-background:new 0 0 25 25;" xml:space="preserve">
<style type="text/css">
	.st0{fill:#FFFFFF;}
</style>
<g>
	<path d="M15.1,4.2c-0.5-0.5-1.1-0.7-1.8-0.7H7.8c0,0,0,0,0,0c-0.3,0-0.6,0.1-0.9,0.2C6.5,3.8,6.3,4,6.1,4.2S5.6,4.7,5.5,5
		C5.4,5.3,5.3,5.6,5.3,5.9v13.1c0,0.3,0.1,0.6,0.2,0.9c0.1,0.3,0.3,0.6,0.5,0.8c0.2,0.2,0.5,0.4,0.8,0.5c0.3,0.1,0.6,0.2,0.9,0.2
		c0,0,0,0,0,0h9.4c0,0,0,0,0,0c0.7,0,1.3-0.3,1.7-0.7c0.5-0.5,0.7-1.1,0.7-1.7V9.9c0-0.6-0.2-1.2-0.7-1.7L15.1,4.2z M18.5,19.1
		c0,0.7-0.6,1.3-1.3,1.3H7.8c-0.7,0-1.3-0.6-1.3-1.3V5.9c0-0.7,0.6-1.3,1.3-1.3h5.6c0.2,0,0.3,0,0.5,0.1C14,4.8,14.2,4.9,14.3,5
		L18.2,9c0.2,0.2,0.4,0.6,0.4,0.9V19.1z"/>
	<path d="M9.7,12.1h2.8c0.1,0,0.2,0,0.2,0c0.1,0,0.1-0.1,0.2-0.1c0.1-0.1,0.1-0.1,0.1-0.2c0-0.1,0-0.1,0-0.2c0-0.2-0.1-0.3-0.2-0.4
		c-0.1-0.1-0.3-0.2-0.4-0.2c0,0,0,0,0,0H9.7c0,0,0,0,0,0c-0.1,0-0.1,0-0.2,0c-0.1,0-0.1,0.1-0.2,0.1c-0.1,0.1-0.1,0.1-0.1,0.2
		c0,0.1,0,0.1,0,0.2C9.1,11.9,9.4,12.1,9.7,12.1z"/>
	<path d="M15.7,14.9c-0.1-0.1-0.1-0.1-0.2-0.1c-0.1,0-0.1,0-0.2,0c0,0,0,0,0,0H9.7c0,0,0,0,0,0c-0.1,0-0.1,0-0.2,0
		c-0.1,0-0.1,0.1-0.2,0.1C9.2,15,9.2,15,9.1,15.1c0,0.1,0,0.1,0,0.2c0,0.3,0.3,0.6,0.6,0.6h5.7c0.1,0,0.1,0,0.2,0
		c0.1,0,0.1-0.1,0.2-0.1c0.1-0.1,0.1-0.1,0.1-0.2c0-0.1,0-0.1,0-0.2c0-0.1,0-0.1,0-0.2C15.8,15,15.8,15,15.7,14.9z"/>
	<polygon class="st0" points="9,11.6 9,11.6 9,11.6 	"/>
</g>
</svg>
