<?xml version="1.0" encoding="utf-8"?>
<!-- Generator: Adobe Illustrator 22.0.1, SVG Export Plug-In . SVG Version: 6.00 Build 0)  -->
<svg version="1.1" id="Layer_1" xmlns="http://www.w3.org/2000/svg" xmlns:xlink="http://www.w3.org/1999/xlink" x="0px" y="0px"
	 viewBox="0 0 25 25" style="enable-background:new 0 0 25 25;" xml:space="preserve">
<g>
	<path d="M17.9,11.3c0-2.9-1.5-5.1-4-5.7l-0.4-0.1v-1c0-0.5-0.4-1-1-1s-1,0.4-1,1v1l-0.4,0.1c-2.5,0.6-4,2.8-4,5.7v5l-1.9,1.9v0.3
		h14.6v-0.3l-1.9-1.9V11.3z M16.8,17.6H8.2v-6.3c0-1.3,0.4-2.5,1.1-3.4c0.8-0.9,1.9-1.4,3.2-1.4s2.4,0.5,3.2,1.4
		c0.7,0.9,1.1,2.1,1.1,3.4V17.6z"/>
	<path d="M13.9,20.5h-2.8c0.2,0.6,0.8,1,1.4,1S13.7,21.1,13.9,20.5z"/>
</g>
</svg>
