<svg width="24" height="24" viewBox="0 0 24 24" fill="none" xmlns="http://www.w3.org/2000/svg">
<path d="M20.3136 15.2399L20.3135 15.2398C20.1399 14.9938 20.0465 14.7014 20.0458 14.4016V8.85574C20.0458 6.74537 19.1978 4.72168 17.6888 3.22978C16.1799 1.73792 14.1335 0.9 12 0.9C9.86649 0.9 7.82014 1.73792 6.31117 3.22978C4.80217 4.72168 3.95421 6.74537 3.95421 8.85574V14.4018C3.95346 14.7015 3.8601 14.9938 3.68647 15.2398L3.68636 15.2399L2.33123 17.1673C2.11489 17.4061 1.97248 17.7016 1.92122 18.0186C1.86961 18.3377 1.91263 18.6647 2.045 18.96C2.17736 19.2554 2.39336 19.5063 2.66669 19.6826C2.94002 19.8589 3.25904 19.953 3.58518 19.9538H3.58541H8.02587C8.22518 20.8325 8.71676 21.6205 9.4229 22.1912C10.1503 22.779 11.0608 23.1 12 23.1C12.9392 23.1 13.8497 22.779 14.5771 22.1912C15.2832 21.6205 15.7748 20.8325 15.9741 19.9538H20.4146H20.4148C20.741 19.953 21.06 19.8589 21.3333 19.6826C21.6066 19.5063 21.8226 19.2554 21.955 18.96C22.0874 18.6647 22.1304 18.3377 22.0788 18.0186C22.0275 17.7016 21.8851 17.4061 21.6688 17.1673L20.3136 15.2399ZM5.74337 14.4021V14.4019V8.85574C5.74337 7.21585 6.40227 5.6429 7.57549 4.48297C8.74875 3.32301 10.3403 2.67115 12 2.67115C13.6597 2.67115 15.2512 3.32301 16.4245 4.48297C17.5977 5.6429 18.2566 7.21585 18.2566 8.85574V14.4019V14.4021C18.2582 15.0635 18.4642 15.7084 18.8469 16.2505C18.847 16.2506 18.847 16.2506 18.847 16.2507L20.204 18.1826H3.79595L5.15296 16.2507C5.53573 15.7085 5.74179 15.0635 5.74337 14.4021ZM12 21.3249C11.5287 21.3235 11.0694 21.1781 10.6851 20.9087C10.3404 20.6669 10.0712 20.3361 9.90614 19.9538H14.0939C13.9288 20.3361 13.6596 20.6669 13.3149 20.9087C12.9306 21.1781 12.4713 21.3235 12 21.3249Z" fill="#1D1D1D" stroke="black" stroke-width="0.2"/>
</svg>
