<svg width="26" height="26" viewBox="0 0 26 26" fill="none" xmlns="http://www.w3.org/2000/svg">
<path fill-rule="evenodd" clip-rule="evenodd" d="M2.16675 13.0062C2.16675 7.02673 7.0292 2.16663 13.0001 2.16663C18.971 2.16663 23.8334 7.02673 23.8334 13.0062C23.8334 18.9731 18.971 23.8333 13.0001 23.8333C7.0292 23.8333 2.16675 18.9731 2.16675 13.0062ZM16.9737 14.1026C17.0887 13.9876 17.2352 13.81 17.2665 13.7682C17.4338 13.5487 17.5175 13.277 17.5175 13.0062C17.5175 12.702 17.4233 12.4198 17.2456 12.19C17.231 12.1753 17.2024 12.1443 17.1653 12.1038C17.0957 12.0282 16.996 11.9194 16.9005 11.8241C16.0431 10.9044 13.8052 9.3993 12.6341 8.93942C12.4564 8.8673 12.0067 8.70948 11.7662 8.69903C11.5361 8.69903 11.3165 8.75129 11.1074 8.85581C10.846 9.00213 10.6368 9.23207 10.5218 9.50382C10.4486 9.69195 10.3336 10.2564 10.3336 10.2668C10.2185 10.8835 10.1558 11.8868 10.1558 12.9948C10.1558 14.0514 10.2185 15.0119 10.3127 15.6391C10.3152 15.6417 10.3242 15.6865 10.3382 15.7562C10.3807 15.968 10.4692 16.4093 10.5636 16.5901C10.7937 17.0291 11.2433 17.3009 11.7243 17.3009H11.7662C12.0799 17.2904 12.7387 17.0187 12.7387 17.0083C13.8471 16.5483 16.0325 15.1165 16.9109 14.1653L16.9737 14.1026Z" fill="#FF6060"/>
</svg>
