<?xml version="1.0" encoding="utf-8"?>
<!-- Generator: Adobe Illustrator 22.0.1, SVG Export Plug-In . SVG Version: 6.00 Build 0)  -->
<svg version="1.1" id="Layer_1" xmlns="http://www.w3.org/2000/svg" xmlns:xlink="http://www.w3.org/1999/xlink" x="0px" y="0px"
	 viewBox="0 0 25 25" style="enable-background:new 0 0 25 25;" xml:space="preserve">
<g>
	<path d="M17.8,21H7.7c-0.4,0-0.9-0.2-1.2-0.5C6.2,20.2,6,19.8,6,19.3v-7.9c0-0.9,0.8-1.7,1.7-1.7h10.1c0.9,0,1.7,0.8,1.7,1.7v7.9
		C19.5,20.2,18.7,21,17.8,21z M7.7,10.9c-0.1,0-0.3,0.1-0.4,0.2c-0.1,0.1-0.2,0.2-0.2,0.4v7.9c0,0.3,0.3,0.6,0.6,0.6h10.1
		c0.1,0,0.3-0.1,0.4-0.2c0.1-0.1,0.2-0.2,0.2-0.4v-7.9c0-0.1-0.1-0.3-0.2-0.4c-0.1-0.1-0.2-0.2-0.4-0.2H7.7z"/>
	<path d="M16.7,10.9c-0.1,0-0.3-0.1-0.4-0.2c-0.1-0.1-0.2-0.2-0.2-0.4V7.5c0-1.9-1.5-3.4-3.4-3.4c-1.9,0-3.4,1.5-3.4,3.4v2.8
		c0,0.1-0.1,0.3-0.2,0.4c-0.1,0.1-0.2,0.2-0.4,0.2c-0.1,0-0.3-0.1-0.4-0.2c-0.1-0.1-0.2-0.2-0.2-0.4V7.5c0-2.5,2-4.5,4.5-4.5
		c2.5,0,4.5,2,4.5,4.5v2.8c0,0.1-0.1,0.3-0.2,0.4C17,10.8,16.8,10.9,16.7,10.9z M12.8,15.8c-0.8,0-1.5-0.7-1.5-1.5s0.7-1.5,1.5-1.5
		c0.8,0,1.5,0.7,1.5,1.5S13.6,15.8,12.8,15.8z M12.8,13.9c-0.1,0-0.2,0-0.3,0.1c-0.1,0.1-0.1,0.2-0.1,0.3s0,0.2,0.1,0.3
		c0.1,0.1,0.2,0.1,0.3,0.1c0,0,0.1,0,0.1,0c0,0,0.1,0,0.1-0.1c0,0,0.1-0.1,0.1-0.1c0,0,0-0.1,0-0.1s0-0.1,0-0.1c0,0,0-0.1-0.1-0.1
		c0,0-0.1-0.1-0.1-0.1C12.8,13.9,12.8,13.9,12.8,13.9z"/>
</g>
</svg>
