<svg width="24" height="24" viewBox="0 0 24 24" fill="none" xmlns="http://www.w3.org/2000/svg">
<path d="M17.5 1H6.5C6.40222 1 6.31056 1 6.21889 1.00611C5.76667 1.03056 5.32667 1.11 4.91111 1.23833C2.65 1.91667 1 4.01889 1 6.5V17.5C1 20.5311 3.46889 23 6.5 23H17.5C20.5311 23 23 20.5311 23 17.5V6.5C23 3.46889 20.5311 1 17.5 1ZM21.7778 17.5C21.7778 19.8589 19.8589 21.7778 17.5 21.7778H6.5C4.14111 21.7778 2.22222 19.8589 2.22222 17.5V6.5C2.22271 5.36561 2.67356 4.27782 3.47569 3.47569C4.27782 2.67356 5.36561 2.22271 6.5 2.22222H17.5C19.8589 2.22222 21.7778 4.14111 21.7778 6.5V17.5Z" fill="#8C8C8C"/>
<path d="M10.1667 7.11108H8.82225L8.41892 6.49997L5.62614 2.31386L5.1617 1.61108H6.62225L7.02559 2.2222L9.87948 6.49997L10.0628 6.77497C10.13 6.87886 10.1667 6.99497 10.1667 7.11108ZM18.1111 7.11108H16.7667L16.3634 6.49997L13.5095 2.2222L13.1061 1.61108H14.5667L14.97 2.2222L17.8239 6.49997L18.0073 6.77497C18.0745 6.87886 18.1111 6.99497 18.1111 7.11108Z" fill="#8C8C8C"/>
<path d="M1 6.5H23V7.72222H1V6.5ZM9.55556 18.7222C9.47526 18.7224 9.39572 18.7067 9.3215 18.676C9.24729 18.6454 9.17985 18.6004 9.12308 18.5436C9.0663 18.4868 9.02129 18.4194 8.99063 18.3452C8.95998 18.2709 8.94428 18.1914 8.94444 18.1111V12C8.94444 11.8936 8.97224 11.789 9.02508 11.6966C9.07793 11.6042 9.15399 11.5272 9.24574 11.4732C9.33749 11.4193 9.44174 11.3902 9.54817 11.3889C9.65461 11.3876 9.75953 11.4142 9.85256 11.4659L15.3526 14.5214C15.4478 14.5744 15.5271 14.6518 15.5823 14.7457C15.6376 14.8396 15.6667 14.9466 15.6667 15.0556C15.6667 15.1645 15.6376 15.2715 15.5823 15.3654C15.5271 15.4593 15.4478 15.5367 15.3526 15.5897L9.85256 18.6452C9.7617 18.6957 9.65949 18.7222 9.55556 18.7222ZM10.1667 13.0389V17.0722L13.7967 15.0556L10.1667 13.0389Z" fill="#8C8C8C"/>
</svg>
