<svg width="16" height="16" viewBox="0 0 16 16" fill="none" xmlns="http://www.w3.org/2000/svg">
<path d="M1.5 4.24997V11.75C1.5 12.1478 1.65804 12.5293 1.93934 12.8106C2.22064 13.0919 2.60218 13.25 3 13.25H3.5C3.63261 13.25 3.75979 13.1973 3.85355 13.1035C3.94732 13.0098 4 12.8826 4 12.75C4 12.6174 3.94732 12.4902 3.85355 12.3964C3.75979 12.3027 3.63261 12.25 3.5 12.25H3C2.86739 12.25 2.74021 12.1973 2.64645 12.1035C2.55268 12.0098 2.5 11.8826 2.5 11.75V4.24997C2.5 4.11737 2.55268 3.99019 2.64645 3.89642C2.74021 3.80265 2.86739 3.74997 3 3.74997H8.915L8.145 4.49997C8.05188 4.59366 7.9996 4.72038 7.9996 4.85247C7.9996 4.98457 8.05188 5.11129 8.145 5.20497C8.19148 5.25184 8.24678 5.28904 8.30771 5.31442C8.36864 5.3398 8.43399 5.35287 8.5 5.35287C8.56601 5.35287 8.63136 5.3398 8.69229 5.31442C8.75322 5.28904 8.80852 5.25184 8.855 5.20497L10.5 3.60497C10.5469 3.55849 10.5841 3.50319 10.6094 3.44226C10.6348 3.38133 10.6479 3.31598 10.6479 3.24997C10.6479 3.18397 10.6348 3.11862 10.6094 3.05769C10.5841 2.99676 10.5469 2.94146 10.5 2.89497L8.855 1.27497C8.80852 1.22811 8.75322 1.19091 8.69229 1.16553C8.63136 1.14014 8.56601 1.12708 8.5 1.12708C8.43399 1.12708 8.36864 1.14014 8.30771 1.16553C8.24678 1.19091 8.19148 1.22811 8.145 1.27497C8.05188 1.36866 7.9996 1.49538 7.9996 1.62747C7.9996 1.75957 8.05188 1.88629 8.145 1.97997L8.915 2.74997H3C2.60218 2.74997 2.22064 2.90801 1.93934 3.18931C1.65804 3.47062 1.5 3.85215 1.5 4.24997ZM13 12.25H7.085L7.855 11.5C7.94813 11.4063 8.0004 11.2796 8.0004 11.1475C8.0004 11.0154 7.94813 10.8887 7.855 10.795C7.80852 10.7481 7.75322 10.7109 7.69229 10.6855C7.63136 10.6601 7.56601 10.6471 7.5 10.6471C7.43399 10.6471 7.36864 10.6601 7.30771 10.6855C7.24678 10.7109 7.19148 10.7481 7.145 10.795L5.525 12.415C5.47814 12.4615 5.44094 12.5168 5.41555 12.5777C5.39017 12.6386 5.3771 12.704 5.3771 12.77C5.3771 12.836 5.39017 12.9013 5.41555 12.9623C5.44094 13.0232 5.47814 13.0785 5.525 13.125L7.145 14.745C7.19148 14.7918 7.24678 14.829 7.30771 14.8544C7.36864 14.8798 7.43399 14.8929 7.5 14.8929C7.56601 14.8929 7.63136 14.8798 7.69229 14.8544C7.75322 14.829 7.80852 14.7918 7.855 14.745C7.94813 14.6513 8.0004 14.5246 8.0004 14.3925C8.0004 14.2604 7.94813 14.1337 7.855 14.04L7.085 13.25H13C13.3978 13.25 13.7794 13.0919 14.0607 12.8106C14.342 12.5293 14.5 12.1478 14.5 11.75V4.24997C14.5 3.85215 14.342 3.47062 14.0607 3.18931C13.7794 2.90801 13.3978 2.74997 13 2.74997H12.5C12.3674 2.74997 12.2402 2.80265 12.1464 2.89642C12.0527 2.99019 12 3.11737 12 3.24997C12 3.38258 12.0527 3.50976 12.1464 3.60353C12.2402 3.6973 12.3674 3.74997 12.5 3.74997H13C13.1326 3.74997 13.2598 3.80265 13.3536 3.89642C13.4473 3.99019 13.5 4.11737 13.5 4.24997V11.75C13.5 11.8826 13.4473 12.0098 13.3536 12.1035C13.2598 12.1973 13.1326 12.25 13 12.25Z" fill="#8C8C8C"/>
</svg>
