<svg width="21" height="21" viewBox="0 0 21 21" fill="none" xmlns="http://www.w3.org/2000/svg">
<path fill-rule="evenodd" clip-rule="evenodd" d="M0 8.75005C0 13.5826 3.91654 17.5001 8.74785 17.5001C13.5792 17.5001 17.4957 13.5826 17.4957 8.75005C17.4957 3.91753 13.5792 0 8.74785 0C3.91654 0 0 3.91753 0 8.75005ZM1.74998 8.75028C1.74998 4.88427 4.88322 1.75024 8.74826 1.75024C10.6043 1.75024 12.3844 2.48775 13.6968 3.80051C15.0092 5.11327 15.7465 6.89376 15.7465 8.75028C15.7465 12.6163 12.6133 15.7503 8.74826 15.7503C4.88322 15.7503 1.74998 12.6163 1.74998 8.75028Z" fill="#1D1D1D"/>
<path d="M20.1201 20.9998C19.8876 21.0012 19.6641 20.9099 19.499 20.7461L13.9966 15.2423C13.6536 14.8992 13.6536 14.3429 13.9966 13.9998C14.3397 13.6567 14.8958 13.6567 15.2388 13.9998L20.7412 19.4948C20.9069 19.6591 21 19.8828 21 20.1161C21 20.3494 20.9069 20.573 20.7412 20.7373C20.5776 20.9043 20.3539 20.9989 20.1201 20.9998Z" fill="#1D1D1D"/>
</svg>
