<svg width="20" height="20" viewBox="0 0 20 20" fill="none" xmlns="http://www.w3.org/2000/svg">
<path d="M19.3177 6.71918L14.7904 2.19187C14.4168 1.81832 14.0379 1.62891 13.6643 1.62891C13.1512 1.62891 12.5521 2.01914 12.5521 3.11895V4.66027C9.26285 4.80363 6.19117 6.15258 3.84836 8.49527C1.36695 10.9765 0.000273466 14.2755 2.84374e-08 17.7846C-3.82694e-05 17.9076 0.0386072 18.0275 0.110463 18.1272C0.18232 18.227 0.283745 18.3016 0.400374 18.3406C0.517004 18.3795 0.642926 18.3808 0.760309 18.3442C0.877691 18.3076 0.980583 18.235 1.05441 18.1366C3.8207 14.4544 7.98559 12.2783 12.5521 12.1065V13.624C12.5521 14.7238 13.1512 15.1141 13.6642 15.1141H13.6643C14.0379 15.1141 14.4169 14.9247 14.7904 14.5511L19.3177 10.0238C19.7577 9.58387 20 8.99707 20 8.37152C20 7.74594 19.7577 7.15914 19.3177 6.71918ZM18.4891 9.19516L13.9618 13.7225C13.8749 13.8094 13.803 13.8642 13.75 13.8975C13.736 13.8365 13.7239 13.7468 13.7239 13.6241V11.5096C13.7239 11.186 13.4616 10.9236 13.138 10.9236C10.5346 10.9236 8.04691 11.5201 5.74414 12.6964C4.09102 13.5409 2.57984 14.6777 1.30012 16.0316C2.15145 10.2621 7.1359 5.81941 13.138 5.81941C13.4616 5.81941 13.7239 5.55707 13.7239 5.23348V3.11895C13.7239 2.99617 13.736 2.90652 13.7499 2.84551C13.803 2.87883 13.8749 2.93367 13.9618 3.02051L18.4891 7.54785C18.7077 7.76648 18.8281 8.05898 18.8281 8.37152C18.8281 8.68402 18.7077 8.97652 18.4891 9.19516Z" fill="#8C8C8C"/>
</svg>
