<svg width="28" height="28" viewBox="0 0 28 28" fill="none" xmlns="http://www.w3.org/2000/svg">
<rect width="28" height="28" rx="4" fill="#A808C1"/>
<path d="M15.6839 8.4704C16.528 8.99967 17.12 9.89531 17.2277 10.9349C17.5817 11.1015 17.968 11.188 18.3592 11.1883C19.8381 11.1883 21.0368 9.98964 21.0368 8.51095C21.0368 7.03204 19.8381 5.83337 18.3592 5.83337C16.8944 5.83383 15.7062 7.01108 15.6839 8.4704ZM13.9297 13.9527C15.4087 13.9527 16.6073 12.7538 16.6073 11.2751C16.6073 9.79643 15.4084 8.59776 13.9297 8.59776C12.4511 8.59776 11.2517 9.79665 11.2517 11.2753C11.2517 12.754 12.4511 13.9527 13.9297 13.9527ZM15.0655 14.1352H12.7935C10.9031 14.1352 9.36519 15.6733 9.36519 17.5637V20.3422L9.37226 20.3858L9.56364 20.4457C11.3677 21.0094 12.935 21.1973 14.225 21.1973C16.7447 21.1973 18.2052 20.4789 18.2952 20.4331L18.474 20.3427H18.4932V17.5637C18.4938 15.6733 16.9559 14.1352 15.0655 14.1352ZM19.4954 11.371H17.2409C17.218 12.2416 16.852 13.0677 16.2225 13.6695C17.9028 14.1691 19.1322 15.7273 19.1322 17.5678V18.4241C21.3582 18.3425 22.641 17.7116 22.7255 17.6692L22.9044 17.5785H22.9235V14.7991C22.9235 12.909 21.3856 11.371 19.4954 11.371ZM9.23145 11.1888C9.75526 11.1888 10.2426 11.0359 10.6555 10.7755C10.785 9.93757 11.2308 9.1812 11.9011 8.66201C11.9038 8.61189 11.9086 8.56222 11.9086 8.51164C11.9086 7.03273 10.7097 5.83406 9.23145 5.83406C7.75231 5.83406 6.55387 7.03273 6.55387 8.51164C6.55387 9.98986 7.75231 11.1888 9.23145 11.1888ZM11.6361 13.6695C11.0101 13.0706 10.6446 12.2497 10.6183 11.3838C10.5347 11.3776 10.452 11.371 10.3668 11.371H8.09498C6.20459 11.371 4.66667 12.909 4.66667 14.7991V17.5781L4.67373 17.6209L4.86512 17.6813C6.31236 18.1331 7.60399 18.3413 8.72587 18.407V17.5678C8.72633 15.7273 9.9553 14.1696 11.6361 13.6695Z" fill="white"/>
</svg>
