<svg width="28" height="28" viewBox="0 0 28 28" fill="none" xmlns="http://www.w3.org/2000/svg">
<rect width="28" height="28" rx="4" fill="#FE4F4F"/>
<path d="M14.0456 4.66663C8.86141 4.66663 4.66669 8.86205 4.66669 14.0455C4.66669 19.2297 8.86211 23.4244 14.0456 23.4244C19.2298 23.4244 23.4245 19.229 23.4245 14.0455C23.4245 8.86135 19.2291 4.66663 14.0456 4.66663ZM8.84442 15.8902C8.9463 16.1774 8.79613 16.4927 8.50895 16.5946C8.22056 16.6969 7.90601 16.5451 7.80454 16.2591C7.31069 14.8672 7.2866 13.2917 7.80454 11.8319C7.90646 11.5447 8.22195 11.3946 8.50895 11.4964C8.79613 11.5983 8.9463 11.9137 8.84442 12.2008C8.43326 13.3597 8.41317 14.6748 8.84442 15.8902ZM13.4848 20.1139C13.4297 20.4137 13.1418 20.612 12.8425 20.5568C11.3567 20.2838 9.9956 19.4977 9.00978 18.3433C8.81194 18.1116 8.83934 17.7633 9.07106 17.5655C9.30285 17.3677 9.65097 17.3951 9.84888 17.6268C10.6706 18.5891 11.8046 19.2442 13.0419 19.4716C13.3416 19.5266 13.5399 19.8142 13.4848 20.1139ZM13.0419 8.61949C11.8046 8.84686 10.6706 9.50199 9.84892 10.4643C9.65167 10.6953 9.30343 10.724 9.07109 10.5256C8.83938 10.3277 8.81198 9.97943 9.00982 9.74775C9.99563 8.59337 11.3568 7.80724 12.8425 7.53425C13.1422 7.47945 13.4298 7.67751 13.4848 7.97716C13.5399 8.27684 13.3415 8.56443 13.0419 8.61949ZM15.2487 20.5568C14.948 20.6119 14.6613 20.4127 14.6064 20.1139C14.5513 19.8142 14.7496 19.5266 15.0493 19.4716C17.6645 18.9911 19.5626 16.7091 19.5626 14.0455C19.5626 11.382 17.6645 9.09994 15.0493 8.61949C14.7496 8.56443 14.5513 8.27688 14.6064 7.97716C14.6614 7.67744 14.9491 7.47905 15.2487 7.53425C18.3877 8.11097 20.666 10.8494 20.666 14.0455C20.666 17.2417 18.3877 19.9801 15.2487 20.5568Z" fill="white"/>
</svg>
