<svg width="28" height="28" viewBox="0 0 28 28" fill="none" xmlns="http://www.w3.org/2000/svg">
<rect width="28" height="28" rx="4" fill="#2AA81A"/>
<path d="M20.5882 7.41561C19.0349 5.84477 16.9713 4.88102 14.7697 4.69835C12.5682 4.51568 10.3739 5.12613 8.583 6.4195C6.7921 7.71286 5.52262 9.6039 5.00376 11.7512C4.4849 13.8985 4.75084 16.1605 5.75359 18.1289L4.77116 22.8986C4.76064 22.9463 4.76024 22.9956 4.76997 23.0434C4.7797 23.0912 4.79935 23.1364 4.82765 23.1761C4.86818 23.2363 4.92612 23.2827 4.99372 23.309C5.06131 23.3353 5.13533 23.3404 5.20588 23.3235L9.8724 22.2158C11.8354 23.1923 14.0812 23.4405 16.2101 22.9163C18.339 22.3921 20.2127 21.1295 21.4979 19.3532C22.7831 17.5769 23.3963 15.4023 23.2284 13.2162C23.0604 11.0302 22.1223 8.97473 20.5808 7.41561H20.5882ZM19.1293 19.05C18.0551 20.1223 16.6718 20.831 15.1739 21.0763C13.676 21.3217 12.1389 21.0915 10.7787 20.418L10.1254 20.0938L7.25915 20.7717V20.7348L7.86334 17.844L7.54405 17.2153C6.84855 15.8514 6.60298 14.3022 6.84258 12.79C7.08217 11.2779 7.79462 9.88049 8.8777 8.79837C10.2376 7.43985 12.0813 6.67676 14.0035 6.67676C15.9257 6.67676 17.7694 7.43985 19.1293 8.79837L19.1612 8.84258C20.5035 10.2054 21.2528 12.0435 21.2459 13.9563C21.239 15.8692 20.4764 17.7018 19.1244 19.0549L19.1293 19.05Z" fill="white"/>
<path d="M18.8762 16.9477C18.525 17.5003 17.9674 18.1757 17.2724 18.3452C16.0443 18.6399 14.1753 18.3452 11.8346 16.1814L11.8052 16.1544C9.7691 14.2534 9.22876 12.6692 9.34911 11.4142C9.42034 10.6994 10.0147 10.056 10.5157 9.63352C10.5954 9.56635 10.6897 9.51875 10.791 9.49451C10.8924 9.47028 10.998 9.47009 11.0994 9.49395C11.2008 9.51782 11.2953 9.56508 11.3752 9.63196C11.4551 9.69884 11.5182 9.78348 11.5596 9.87913L12.3136 11.5836C12.3628 11.6934 12.3813 11.8144 12.367 11.9338C12.3527 12.0532 12.3062 12.1665 12.2325 12.2615L11.8494 12.7527C11.7697 12.8547 11.7223 12.9781 11.7131 13.1071C11.7039 13.2362 11.7334 13.365 11.7978 13.4773C12.1617 14.0137 12.5972 14.4979 13.0921 14.9165C13.6247 15.429 14.2286 15.8616 14.8851 16.201C15.0049 16.2493 15.1364 16.2609 15.2628 16.2342C15.3892 16.2075 15.5048 16.1438 15.5949 16.0512L16.0345 15.6042C16.1182 15.5142 16.2251 15.4492 16.3434 15.4162C16.4618 15.3833 16.5869 15.3837 16.705 15.4175L18.4979 15.9309C18.5995 15.9598 18.6929 16.0122 18.7705 16.0839C18.848 16.1556 18.9077 16.2445 18.9445 16.3435C18.9813 16.4425 18.9943 16.5488 18.9824 16.6537C18.9706 16.7587 18.9342 16.8594 18.8762 16.9477Z" fill="white"/>
</svg>
