<svg width="28" height="28" viewBox="0 0 28 28" fill="none" xmlns="http://www.w3.org/2000/svg">
<rect width="28" height="28" rx="4" fill="#1D1D1D"/>
<path d="M21.3044 5.83337H6.69566C6.15773 5.83402 5.64203 6.04799 5.26166 6.42836C4.88129 6.80873 4.66732 7.32444 4.66667 7.86236V16.7899C4.66732 17.3278 4.88129 17.8435 5.26166 18.2239C5.64203 18.6043 6.15773 18.8182 6.69566 18.8189H7.50725V22.047C7.50568 22.2125 7.55395 22.3746 7.6458 22.5123C7.73765 22.6499 7.86881 22.7567 8.02221 22.8188C8.17063 22.8787 8.33366 22.8924 8.49002 22.8583C8.64637 22.8241 8.78881 22.7436 8.89873 22.6273L12.5501 18.8189H21.3044C21.8423 18.8182 22.358 18.6043 22.7383 18.2239C23.1187 17.8435 23.3327 17.3278 23.3333 16.7899V7.86236C23.3327 7.32444 23.1187 6.80873 22.7383 6.42836C22.358 6.04799 21.8423 5.83402 21.3044 5.83337ZM9.13044 9.48555H13.1884C13.296 9.48555 13.3993 9.5283 13.4754 9.6044C13.5515 9.6805 13.5942 9.78372 13.5942 9.89135C13.5942 9.99897 13.5515 10.1022 13.4754 10.1783C13.3993 10.2544 13.296 10.2971 13.1884 10.2971H9.13044C9.02282 10.2971 8.9196 10.2544 8.8435 10.1783C8.7674 10.1022 8.72464 9.99897 8.72464 9.89135C8.72464 9.78372 8.7674 9.6805 8.8435 9.6044C8.9196 9.5283 9.02282 9.48555 9.13044 9.48555ZM17.2464 15.1667H9.13044C9.02282 15.1667 8.9196 15.124 8.8435 15.0479C8.7674 14.9718 8.72464 14.8685 8.72464 14.7609C8.72464 14.6533 8.7674 14.5501 8.8435 14.474C8.9196 14.3979 9.02282 14.3551 9.13044 14.3551H17.2464C17.354 14.3551 17.4572 14.3979 17.5333 14.474C17.6094 14.5501 17.6522 14.6533 17.6522 14.7609C17.6522 14.8685 17.6094 14.9718 17.5333 15.0479C17.4572 15.124 17.354 15.1667 17.2464 15.1667ZM18.8696 12.7319H9.13044C9.02282 12.7319 8.9196 12.6892 8.8435 12.6131C8.7674 12.537 8.72464 12.4338 8.72464 12.3261C8.72464 12.2185 8.7674 12.1153 8.8435 12.0392C8.9196 11.9631 9.02282 11.9203 9.13044 11.9203H18.8696C18.9772 11.9203 19.0804 11.9631 19.1565 12.0392C19.2326 12.1153 19.2754 12.2185 19.2754 12.3261C19.2754 12.4338 19.2326 12.537 19.1565 12.6131C19.0804 12.6892 18.9772 12.7319 18.8696 12.7319Z" fill="white"/>
</svg>
