<svg width="28" height="28" viewBox="0 0 28 28" fill="none" xmlns="http://www.w3.org/2000/svg">
<rect width="28" height="28" rx="4" fill="#FFA800"/>
<path d="M16.055 11.9414C15.8338 11.7189 15.5886 11.5217 15.3238 11.3533C14.6225 10.9043 13.8073 10.6656 12.9746 10.6657C12.4023 10.6646 11.8355 10.7768 11.3069 10.9957C10.7782 11.2147 10.298 11.5361 9.8941 11.9414L5.93619 15.9024C5.12173 16.7184 4.66398 17.8241 4.66324 18.977C4.66171 21.3829 6.61077 23.3344 9.01664 23.336C9.58799 23.3379 10.1541 23.2268 10.6823 23.0089C11.2104 22.791 11.6902 22.4707 12.094 22.0664L15.3611 18.7993C15.405 18.7558 15.4349 18.7002 15.4471 18.6396C15.4592 18.579 15.4531 18.5161 15.4294 18.4591C15.4057 18.402 15.3655 18.3533 15.314 18.3191C15.2625 18.2849 15.202 18.2669 15.1402 18.2672H15.0158C14.3332 18.2696 13.6567 18.1385 13.0244 17.8814C12.9674 17.8579 12.9048 17.8519 12.8444 17.8641C12.784 17.8763 12.7286 17.9061 12.6852 17.9498L10.336 20.3022C9.60648 21.0317 8.42374 21.0317 7.69425 20.3022C6.96476 19.5727 6.96476 18.3899 7.69425 17.6605L11.6677 13.6901C12.3966 12.9621 13.5775 12.9621 14.3064 13.6901C14.7976 14.1524 15.5638 14.1524 16.055 13.6901C16.2664 13.4786 16.3945 13.198 16.416 12.8998C16.4272 12.7235 16.4009 12.547 16.3386 12.3817C16.2764 12.2165 16.1797 12.0664 16.055 11.9414Z" fill="white"/>
<path d="M22.0573 5.93954C20.356 4.23825 17.5977 4.23825 15.8964 5.93954L12.6323 9.20045C12.5885 9.24447 12.5589 9.30059 12.5473 9.36159C12.5356 9.42259 12.5425 9.48568 12.567 9.54274C12.5912 9.59997 12.632 9.64863 12.6842 9.68246C12.7363 9.71628 12.7973 9.73372 12.8595 9.73253H12.9746C13.6564 9.73128 14.3318 9.86341 14.9629 10.1215C15.0198 10.1449 15.0825 10.1509 15.1429 10.1388C15.2032 10.1266 15.2586 10.0967 15.302 10.053L17.645 7.71313C18.3745 6.98364 19.5573 6.98364 20.2868 7.71313C21.0163 8.44263 21.0163 9.62536 20.2868 10.3549L17.3681 13.2704L17.3432 13.2984L16.3226 14.3128C15.5937 15.0408 14.4129 15.0408 13.684 14.3128C13.1928 13.8505 12.4265 13.8505 11.9353 14.3128C11.7226 14.5259 11.5944 14.8089 11.5744 15.1093C11.5631 15.2855 11.5895 15.4621 11.6517 15.6274C11.7139 15.7926 11.8106 15.9427 11.9353 16.0677C12.2954 16.4294 12.7168 16.7243 13.1799 16.9389C13.2453 16.97 13.3106 16.9949 13.376 17.0229C13.4413 17.0509 13.5097 17.0727 13.5751 17.0976C13.6405 17.1222 13.7069 17.144 13.7742 17.163L13.9578 17.2127C14.0823 17.2438 14.2067 17.2687 14.3343 17.2905C14.4879 17.3133 14.6427 17.3279 14.7979 17.3341H15.0344L15.2211 17.3123C15.2895 17.3092 15.3611 17.2936 15.442 17.2936H15.5478L15.7625 17.2625L15.8621 17.2439L16.0425 17.2065H16.0768C16.8411 17.0145 17.539 16.6188 18.0962 16.0615L22.0572 12.1004C23.7586 10.3992 23.7586 7.64083 22.0573 5.93954Z" fill="white"/>
</svg>
