<svg width="28" height="28" viewBox="0 0 28 28" fill="none" xmlns="http://www.w3.org/2000/svg">
<rect width="28" height="28" rx="4" fill="#31A9FF"/>
<mask id="mask0_1965_850" style="mask-type:luminance" maskUnits="userSpaceOnUse" x="5" y="5" width="18" height="18">
<path d="M5.83334 5.83337H22.1667V22.1667H5.83334V5.83337Z" fill="white"/>
</mask>
<g mask="url(#mask0_1965_850)">
<path fill-rule="evenodd" clip-rule="evenodd" d="M13.997 5.88684C15.209 5.88712 16.4056 6.15899 17.4987 6.68247C18.5918 7.20595 19.5538 7.96774 20.3138 8.91184C21.0739 9.85594 21.6127 10.9584 21.8907 12.1381C22.1687 13.3178 22.1788 14.5448 21.9203 15.7289C21.6618 16.913 21.1412 18.0242 20.3968 18.9807C19.6524 19.9372 18.7032 20.7147 17.6188 21.2561C16.5344 21.7976 15.3425 22.0891 14.1307 22.1094C12.9188 22.1296 11.7178 21.8781 10.616 21.3732L6.57232 22.1047C6.47083 22.123 6.36628 22.1142 6.26934 22.0789C6.1724 22.0437 6.08653 21.9834 6.02048 21.9042C5.95443 21.825 5.91056 21.7297 5.89334 21.628C5.87613 21.5263 5.88619 21.4219 5.92249 21.3253L7.08216 18.2383C6.32889 17.0089 5.91688 15.601 5.88852 14.1594C5.86016 12.7178 6.21649 11.2948 6.92082 10.0367C7.62515 8.77858 8.65203 7.73091 9.89577 7.00152C11.1395 6.27213 12.5552 5.88737 13.997 5.88684ZM10.238 13.9975V14.0022L10.2368 14.0033H10.231V13.9998V13.9975L10.2333 13.9963H10.2368L10.238 13.9975ZM10.2345 12.8378C9.92631 12.8378 9.63075 12.9603 9.41283 13.1782C9.19491 13.3961 9.07249 13.6917 9.07249 13.9998C9.07249 14.308 9.19491 14.6036 9.41283 14.8215C9.63075 15.0394 9.92631 15.1618 10.2345 15.1618C10.5427 15.1618 10.8382 15.0394 11.0561 14.8215C11.2741 14.6036 11.3965 14.308 11.3965 13.9998C11.3965 13.6917 11.2741 13.3961 11.0561 13.1782C10.8382 12.9603 10.5427 12.8378 10.2345 12.8378ZM14.0028 13.9998V13.9975L14.0017 13.9963H13.997L13.9958 13.9975V14.0022L13.997 14.0033H14.0017L14.0028 14.0022V13.9998ZM12.8362 13.9998C12.8362 13.8472 12.8662 13.696 12.9247 13.5549C12.9831 13.4139 13.0687 13.2857 13.1767 13.1778C13.2846 13.0698 13.4128 12.9842 13.5538 12.9258C13.6949 12.8673 13.8461 12.8373 13.9987 12.8373C14.1514 12.8373 14.3026 12.8673 14.4436 12.9258C14.5847 12.9842 14.7129 13.0698 14.8208 13.1778C14.9288 13.2857 15.0144 13.4139 15.0728 13.5549C15.1313 13.696 15.1613 13.8472 15.1613 13.9998C15.1613 14.308 15.0389 14.6036 14.821 14.8215C14.6031 15.0394 14.3075 15.1618 13.9993 15.1618C13.6911 15.1618 13.3956 15.0394 13.1777 14.8215C12.9597 14.6036 12.8373 14.308 12.8373 13.9998H12.8362ZM17.7677 13.9975V14.0022L17.7653 14.0033H17.7618L17.7607 14.0022V13.9975L17.7618 13.9963H17.7665L17.7677 13.9975ZM17.7642 12.8378C17.456 12.8378 17.1604 12.9603 16.9425 13.1782C16.7246 13.3961 16.6022 13.6917 16.6022 13.9998C16.6022 14.308 16.7246 14.6036 16.9425 14.8215C17.1604 15.0394 17.456 15.1618 17.7642 15.1618C18.0723 15.1618 18.3679 15.0394 18.5858 14.8215C18.8037 14.6036 18.9262 14.308 18.9262 13.9998C18.9262 13.6917 18.8037 13.3961 18.5858 13.1782C18.3679 12.9603 18.0723 12.8378 17.7642 12.8378Z" fill="white"/>
</g>
</svg>
