<svg width="20" height="20" viewBox="0 0 20 20" fill="none" xmlns="http://www.w3.org/2000/svg">
<g clip-path="url(#clip0_556_2978)">
<path d="M16.25 20H3.75001C3.19767 19.9993 2.66815 19.7796 2.2776 19.3891C1.88704 18.9985 1.66733 18.469 1.66667 17.9167V2.08333C1.66667 0.935 2.60167 0 3.75001 0H16.25C17.3983 0 18.3333 0.935 18.3333 2.08333V17.9167C18.3333 19.065 17.3983 20 16.25 20ZM3.75001 0.833333C3.06084 0.833333 2.50001 1.39417 2.50001 2.08333V17.9167C2.50001 18.6058 3.06084 19.1667 3.75001 19.1667H16.25C16.9392 19.1667 17.5 18.6058 17.5 17.9167V2.08333C17.5 1.39417 16.9392 0.833333 16.25 0.833333H3.75001Z" fill="white"/>
<path d="M9.58334 8.33329C9.47283 8.33329 9.36685 8.28939 9.28871 8.21125C9.21057 8.13311 9.16667 8.02713 9.16667 7.91663V7.49996H5.00001V7.91663C5.00001 8.02713 4.95611 8.13311 4.87797 8.21125C4.79983 8.28939 4.69385 8.33329 4.58334 8.33329C4.47283 8.33329 4.36685 8.28939 4.28871 8.21125C4.21057 8.13311 4.16667 8.02713 4.16667 7.91663V7.08329C4.16667 6.97279 4.21057 6.8668 4.28871 6.78866C4.36685 6.71052 4.47283 6.66663 4.58334 6.66663H9.58334C9.69385 6.66663 9.79983 6.71052 9.87797 6.78866C9.95611 6.8668 10 6.97279 10 7.08329V7.91663C10 8.02713 9.95611 8.13311 9.87797 8.21125C9.79983 8.28939 9.69385 8.33329 9.58334 8.33329Z" fill="white"/>
<path d="M7.08334 12.5C6.97283 12.5 6.86685 12.4561 6.78871 12.3779C6.71057 12.2998 6.66667 12.1938 6.66667 12.0833V7.08329C6.66667 6.97279 6.71057 6.8668 6.78871 6.78866C6.86685 6.71052 6.97283 6.66663 7.08334 6.66663C7.19385 6.66663 7.29983 6.71052 7.37797 6.78866C7.45611 6.8668 7.50001 6.97279 7.50001 7.08329V12.0833C7.50001 12.1938 7.45611 12.2998 7.37797 12.3779C7.29983 12.4561 7.19385 12.5 7.08334 12.5Z" fill="white"/>
<path d="M7.91667 12.5H6.25001C6.1395 12.5 6.03352 12.4561 5.95538 12.3779C5.87724 12.2998 5.83334 12.1938 5.83334 12.0833C5.83334 11.9728 5.87724 11.8668 5.95538 11.7887C6.03352 11.7105 6.1395 11.6666 6.25001 11.6666H7.91667C8.02718 11.6666 8.13316 11.7105 8.2113 11.7887C8.28944 11.8668 8.33334 11.9728 8.33334 12.0833C8.33334 12.1938 8.28944 12.2998 8.2113 12.3779C8.13316 12.4561 8.02718 12.5 7.91667 12.5ZM15.4167 7.49996H12.0833C11.9728 7.49996 11.8669 7.45606 11.7887 7.37792C11.7106 7.29978 11.6667 7.1938 11.6667 7.08329C11.6667 6.97279 11.7106 6.8668 11.7887 6.78866C11.8669 6.71052 11.9728 6.66663 12.0833 6.66663H15.4167C15.5272 6.66663 15.6332 6.71052 15.7113 6.78866C15.7894 6.8668 15.8333 6.97279 15.8333 7.08329C15.8333 7.1938 15.7894 7.29978 15.7113 7.37792C15.6332 7.45606 15.5272 7.49996 15.4167 7.49996ZM15.4167 9.99996H12.0833C11.9728 9.99996 11.8669 9.95606 11.7887 9.87792C11.7106 9.79978 11.6667 9.6938 11.6667 9.58329C11.6667 9.47279 11.7106 9.3668 11.7887 9.28866C11.8669 9.21052 11.9728 9.16663 12.0833 9.16663H15.4167C15.5272 9.16663 15.6332 9.21052 15.7113 9.28866C15.7894 9.3668 15.8333 9.47279 15.8333 9.58329C15.8333 9.6938 15.7894 9.79978 15.7113 9.87792C15.6332 9.95606 15.5272 9.99996 15.4167 9.99996ZM15.4167 12.5H12.0833C11.9728 12.5 11.8669 12.4561 11.7887 12.3779C11.7106 12.2998 11.6667 12.1938 11.6667 12.0833C11.6667 11.9728 11.7106 11.8668 11.7887 11.7887C11.8669 11.7105 11.9728 11.6666 12.0833 11.6666H15.4167C15.5272 11.6666 15.6332 11.7105 15.7113 11.7887C15.7894 11.8668 15.8333 11.9728 15.8333 12.0833C15.8333 12.1938 15.7894 12.2998 15.7113 12.3779C15.6332 12.4561 15.5272 12.5 15.4167 12.5ZM15.4167 15H4.58334C4.47283 15 4.36685 14.9561 4.28871 14.8779C4.21057 14.7998 4.16667 14.6938 4.16667 14.5833C4.16667 14.4728 4.21057 14.3668 4.28871 14.2887C4.36685 14.2105 4.47283 14.1666 4.58334 14.1666H15.4167C15.5272 14.1666 15.6332 14.2105 15.7113 14.2887C15.7894 14.3668 15.8333 14.4728 15.8333 14.5833C15.8333 14.6938 15.7894 14.7998 15.7113 14.8779C15.6332 14.9561 15.5272 15 15.4167 15ZM15.4167 17.5H4.58334C4.47283 17.5 4.36685 17.4561 4.28871 17.3779C4.21057 17.2998 4.16667 17.1938 4.16667 17.0833C4.16667 16.9728 4.21057 16.8668 4.28871 16.7887C4.36685 16.7105 4.47283 16.6666 4.58334 16.6666H15.4167C15.5272 16.6666 15.6332 16.7105 15.7113 16.7887C15.7894 16.8668 15.8333 16.9728 15.8333 17.0833C15.8333 17.1938 15.7894 17.2998 15.7113 17.3779C15.6332 17.4561 15.5272 17.5 15.4167 17.5Z" fill="white"/>
</g>
<defs>
<clipPath id="clip0_556_2978">
<rect width="20" height="20" fill="white"/>
</clipPath>
</defs>
</svg>
