<svg width="17" height="19" viewBox="0 0 17 19" fill="none" xmlns="http://www.w3.org/2000/svg">
<path d="M12.7375 0.752197H4.29119C2.42495 0.752197 0.90918 2.27673 0.90918 4.13421V16.4794C0.90918 18.0565 2.03944 18.7224 3.42378 17.9601L7.69948 15.5857C8.15509 15.3316 8.89107 15.3316 9.33792 15.5857L13.6136 17.9601C14.998 18.7312 16.1282 18.0653 16.1282 16.4794V4.13421C16.1195 2.27673 14.6037 0.752197 12.7375 0.752197Z" stroke="white" stroke-width="1.31425" stroke-linecap="round" stroke-linejoin="round"/>
<path d="M12.7375 0.752197H4.29119C2.42495 0.752197 0.90918 2.27673 0.90918 4.13421V16.4794C0.90918 18.0565 2.03944 18.7224 3.42378 17.9601L7.69948 15.5857C8.15509 15.3316 8.89107 15.3316 9.33792 15.5857L13.6136 17.9601C14.998 18.7312 16.1282 18.0653 16.1282 16.4794V4.13421C16.1195 2.27673 14.6037 0.752197 12.7375 0.752197Z" fill="white" stroke="white" stroke-width="1.31425" stroke-linecap="round" stroke-linejoin="round"/>
</svg>
