<svg width="32" height="32" viewBox="0 0 32 32" fill="none" xmlns="http://www.w3.org/2000/svg">
<path d="M23.3033 12.0147C23.3132 12.0147 23.3232 12.0147 23.3332 12.0147C26.6469 12.0147 29.3332 14.7059 29.3332 18.0257C29.3332 21.1197 26.9998 23.6677 23.9998 24M23.3033 12.0147C23.323 11.7947 23.3332 11.5719 23.3332 11.3468C23.3332 7.28927 20.05 4 15.9998 4C12.1642 4 9.01628 6.95023 8.69373 10.7092M23.3033 12.0147C23.1669 13.5301 22.5713 14.9128 21.6569 16.022M8.69373 10.7092C5.31181 11.0316 2.6665 13.8852 2.6665 17.3577C2.6665 20.5889 4.95685 23.2843 7.99984 23.9031M8.69373 10.7092C8.90418 10.6892 9.11748 10.6789 9.33317 10.6789C10.8343 10.6789 12.2195 11.1759 13.3338 12.0147" stroke="#8C8C8C" stroke-opacity="0.6" stroke-width="1.2" stroke-linecap="round" stroke-linejoin="round"/>
<path d="M15.9998 17.3334V28M15.9998 17.3334C15.0662 17.3334 13.3219 19.9924 12.6665 20.6667M15.9998 17.3334C16.9334 17.3334 18.6778 19.9924 19.3332 20.6667" stroke="#8C8C8C" stroke-opacity="0.6" stroke-width="1.2" stroke-linecap="round" stroke-linejoin="round"/>
</svg>
