<svg width="26" height="26" viewBox="0 0 26 26" fill="none" xmlns="http://www.w3.org/2000/svg">
<path d="M17.2124 12.354L11.1186 8.54542C11.0033 8.47338 10.8708 8.43351 10.7349 8.42995C10.599 8.42639 10.4646 8.45927 10.3457 8.52518C10.2267 8.59109 10.1276 8.68763 10.0586 8.80477C9.98957 8.92191 9.95315 9.05539 9.95313 9.19136V16.8085C9.95312 16.9445 9.98952 17.078 10.0585 17.1952C10.1275 17.3123 10.2267 17.4089 10.3456 17.4748C10.4645 17.5407 10.5989 17.5736 10.7348 17.57C10.8708 17.5664 11.0033 17.5265 11.1186 17.4545L17.2123 13.6459C17.3219 13.5774 17.4122 13.4822 17.4748 13.3692C17.5375 13.2562 17.5703 13.1292 17.5703 13C17.5703 12.8708 17.5375 12.7437 17.4749 12.6307C17.4122 12.5177 17.3219 12.4225 17.2124 12.354ZM11.4766 15.4342V10.5657L15.3714 13L11.4766 15.4342Z" fill="#1D1D1D"/>
<path d="M22.1914 3.09766H3.80859C1.70854 3.09766 0 4.80619 0 6.90625V19.0938C0 21.1938 1.70854 22.9023 3.80859 22.9023H22.1914C24.2915 22.9023 26 21.1938 26 19.0938V6.90625C26 4.80619 24.2915 3.09766 22.1914 3.09766ZM24.4766 19.0938C24.4766 20.3538 23.4514 21.3789 22.1914 21.3789H3.80859C2.54856 21.3789 1.52344 20.3538 1.52344 19.0938V6.90625C1.52344 5.64621 2.54856 4.62109 3.80859 4.62109H22.1914C23.4514 4.62109 24.4766 5.64621 24.4766 6.90625V19.0938Z" fill="#1D1D1D"/>
</svg>
