<svg width="28" height="28" viewBox="0 0 28 28" fill="none" xmlns="http://www.w3.org/2000/svg">
<circle cx="12" cy="12" r="13" transform="matrix(-1 0 0 1 26 2)" fill="#FFC700" stroke="white" stroke-width="2"/>
<path d="M18.8431 18.8432C15.5833 22.1001 10.4636 22.3619 6.90488 19.6289C6.39929 19.2404 6.36464 18.4879 6.8154 18.0371L18.037 6.81549C18.4878 6.36473 19.2403 6.39913 19.6288 6.90497C22.3618 10.4637 22.1001 15.5834 18.8431 18.8432Z" fill="#FF5364"/>
<path d="M16.1425 13.0838C16.3698 13.3111 16.3902 13.659 16.1882 13.8609C15.9863 14.0629 15.6382 14.0425 15.4111 13.8152C15.184 13.5878 14.8892 12.9656 15.0912 12.7637C15.2932 12.5617 15.9154 12.8565 16.1427 13.0836L16.1425 13.0838ZM13.5564 17.7494C13.7837 17.9767 13.8041 18.3246 13.6021 18.5265C13.4002 18.7285 13.0521 18.7081 12.825 18.4808C12.5977 18.2534 12.3031 17.6312 12.5051 17.4292C12.7071 17.2273 13.3293 17.5221 13.5566 17.7491L13.5564 17.7494ZM18.7286 12.5772C18.9559 12.8045 18.9763 13.1523 18.7743 13.3543C18.5724 13.5563 18.2243 13.5359 17.9972 13.3085C17.7699 13.0812 17.4753 12.459 17.6773 12.257C17.8793 12.0551 18.5015 12.3499 18.7288 12.5769L18.7286 12.5772ZM18.47 9.99109C18.6973 10.2184 18.7177 10.5662 18.5157 10.7682C18.3138 10.9702 17.9657 10.9498 17.7386 10.7224C17.5113 10.4951 17.2167 9.8729 17.4187 9.67093C17.6207 9.46895 18.2429 9.76377 18.4702 9.99083L18.47 9.99109ZM10.7168 17.7442C10.9441 17.9716 10.9646 18.3194 10.7626 18.5214C10.5606 18.7233 10.2125 18.7029 9.98546 18.4756C9.7584 18.2483 9.46358 17.626 9.66556 17.4241C9.86753 17.2221 10.4897 17.5169 10.7171 17.744L10.7168 17.7442ZM16.9289 15.9391C17.1562 16.1665 17.1766 16.5143 16.9747 16.7163C16.7727 16.9182 16.4246 16.8978 16.1975 16.6705C15.9705 16.4432 15.6757 15.8209 15.8776 15.619C16.0796 15.417 16.7018 15.7118 16.9292 15.9389L16.9289 15.9391ZM14.0736 15.1633C14.3009 15.3906 14.3213 15.7385 14.1193 15.9404C13.9174 16.1424 13.5693 16.122 13.3422 15.8947C13.1149 15.6673 12.8203 15.0451 13.0223 14.8431C13.2243 14.6412 13.8465 14.936 14.0738 15.163L14.0736 15.1633Z" fill="#603E26"/>
<path d="M18.8433 18.8434C15.5823 22.0993 10.4644 22.3631 6.90587 19.6295C6.42744 19.2623 6.37055 18.5692 6.74553 18.1141C8.23254 19.6192 10.3118 20.4649 12.4272 20.4649C14.5737 20.4649 16.5934 19.6295 18.1115 18.1115C21.1967 15.0237 21.2872 9.93165 18.1115 6.75074C18.5666 6.37058 19.2623 6.42489 19.6295 6.90591C22.363 10.4644 22.0992 15.5823 18.8433 18.8434Z" fill="#71C285"/>
</svg>
