<svg width="20" height="20" viewBox="0 0 20 20" fill="none" xmlns="http://www.w3.org/2000/svg">
<path d="M14.2305 16.3118C9.64983 19.2296 3.5744 17.8848 0.65309 13.3064C0.556363 13.1508 0.603539 12.9377 0.756876 12.8375L1.43018 12.4083L1.58886 12.661C4.17385 16.7119 9.54455 17.9007 13.5976 15.3192C17.6485 12.7342 18.8373 7.3635 16.2558 3.31041L16.0937 3.05989L16.767 2.63064C16.9225 2.53392 17.1356 2.58109 17.2358 2.73443C20.1537 7.31506 18.8089 13.3905 14.2305 16.3118Z" fill="#3F773F"/>
<path d="M13.5976 15.3191C9.54455 17.9006 4.17385 16.7118 1.58886 12.6609L1.43018 12.4082L16.0937 3.05978L16.2558 3.31029C18.8373 7.36338 17.6485 12.7341 13.5976 15.3191Z" fill="#D3224C"/>
<path d="M6.98106 16.7547C4.73389 16.2573 2.67593 14.9051 1.34332 12.8171L1.18325 12.5626L1.67621 12.2532L1.83518 12.506C4.32613 16.4093 9.53344 17.562 13.441 15.0735C17.3468 12.5813 18.4994 7.37423 16.0103 3.4665L15.849 3.21737L16.3376 2.90104L16.4996 3.15184C19.1621 7.33195 17.9298 12.8993 13.7536 15.5642C11.6643 16.895 9.22795 17.252 6.98078 16.7546L6.98106 16.7547Z" fill="#EDED6E"/>
<path fill-rule="evenodd" clip-rule="evenodd" d="M5.01484 13.711C4.83101 13.7174 4.64443 13.6441 4.49184 13.49C4.30111 13.2973 4.21792 13.0211 4.28317 12.7797C4.31166 12.5395 4.4532 12.3751 4.66966 12.248L5.57638 11.8578C5.64992 11.8553 5.76021 11.8515 5.83651 11.9285C5.9128 12.0056 5.9537 12.1238 5.9197 12.2047L5.6233 13.2116C5.52129 13.4543 5.37974 13.6187 5.16053 13.6661C5.12514 13.7072 5.05161 13.7098 5.01484 13.711ZM5.23495 12.6271L4.83604 12.8004C4.79928 12.8016 4.76389 12.8427 4.76527 12.8825C4.76665 12.9224 4.76941 13.002 4.8457 13.0791C4.92199 13.1562 4.99552 13.1536 5.03229 13.1523C5.06768 13.1112 5.10444 13.11 5.10306 13.0702L5.23495 12.6271ZM7.94468 15.4034L7.76085 15.4097C7.53749 15.3378 7.31 15.1463 7.22681 14.8702C7.145 14.6338 7.17348 14.3936 7.35041 14.1882L7.9846 13.3689C8.05537 13.2867 8.12752 13.2444 8.2392 13.2804C8.31411 13.3176 8.3904 13.3947 8.43131 13.5129L8.65102 14.5418C8.69606 14.7794 8.59404 15.0221 8.4525 15.1865C8.31096 15.3508 8.12851 15.397 7.94468 15.4034ZM7.73187 14.5736C7.73187 14.5736 7.69648 14.6147 7.73601 14.6931C7.73877 14.7727 7.81506 14.8498 7.88859 14.8472C7.9635 14.8845 8.03566 14.8421 8.07104 14.801C8.14319 14.7587 8.14181 14.7189 8.13905 14.6392L8.04896 14.164L7.73187 14.5736ZM11.2904 15.2874C11.1433 15.2925 10.9581 15.2591 10.8437 15.1434C10.6543 14.9906 10.5344 14.7157 10.5628 14.4755L10.7108 13.4339C10.7434 13.3132 10.8142 13.231 10.8863 13.1886C10.9966 13.1848 11.1069 13.181 11.1465 13.2593L11.8358 14.0327L11.874 14.0713C11.9912 14.2665 12.0362 14.5042 11.971 14.7456C11.9057 14.987 11.692 15.1938 11.4742 15.281L11.2904 15.2874ZM11.0803 14.5373C11.0831 14.6169 11.1212 14.6555 11.1594 14.694C11.1975 14.7325 11.2724 14.7698 11.3078 14.7287C11.3813 14.7262 11.4521 14.644 11.4861 14.5631L11.4806 14.4038L11.1373 14.0569L11.0803 14.5373ZM14.1328 13.395C14.0592 13.3976 14.0225 13.3988 13.9476 13.3616C13.7256 13.3294 13.573 13.1752 13.4544 12.9402L13.089 11.9562C13.0863 11.8766 13.0821 11.7572 13.1529 11.675C13.2237 11.5928 13.3326 11.5491 13.4075 11.5864L14.3758 11.9116L14.4126 11.9104C14.5992 11.9836 14.715 12.1391 14.7968 12.3754C14.8786 12.6118 14.8148 12.893 14.6746 13.0972L14.6392 13.1383C14.4977 13.3027 14.3166 13.3887 14.1328 13.395ZM13.8 12.2904L13.9636 12.7631C13.965 12.8029 14.0018 12.8016 14.0399 12.8401C14.1135 12.8376 14.187 12.8351 14.2578 12.7529C14.2931 12.7118 14.3258 12.5911 14.2862 12.5127C14.2862 12.5127 14.2849 12.4729 14.2481 12.4742L13.8 12.2904ZM15.7164 10.2307C15.5693 10.2358 15.4195 10.1613 15.2683 10.047L14.5095 9.39557C14.4346 9.3583 14.4304 9.23885 14.4263 9.1194C14.4603 9.0385 14.5311 8.95631 14.64 8.91268L15.589 8.68046C15.7715 8.63428 15.9948 8.70626 16.1474 8.86043C16.3367 9.01333 16.3846 9.33058 16.3574 9.61057C16.2922 9.85201 16.1166 10.0973 15.8988 10.1846C15.8253 10.1871 15.7531 10.2295 15.7164 10.2307ZM15.2802 9.32899L15.6221 9.63605C15.6603 9.6746 15.697 9.67332 15.7324 9.63223C15.7692 9.63096 15.8413 9.58859 15.8372 9.46914C15.8712 9.38824 15.8303 9.27006 15.7922 9.23152C15.7922 9.23152 15.754 9.19298 15.7186 9.23407L15.6819 9.23534L15.2802 9.32899ZM15.6262 6.56638L15.5159 6.57021L14.5531 6.40426C14.4414 6.36826 14.3651 6.29118 14.3256 6.21282C14.3214 6.09337 14.3173 5.97392 14.3894 5.93156L15.1013 5.2292C15.2796 5.06356 15.4974 4.97628 15.7208 5.04827C15.9442 5.12026 16.1363 5.35278 16.2181 5.58913C16.2645 5.86657 16.2388 6.18638 16.0605 6.35201C15.9557 6.5151 15.81 6.56001 15.6262 6.56638ZM15.1629 5.94462L15.5701 6.01023L15.6804 6.00641C15.7158 5.96532 15.7484 5.8446 15.7089 5.76624C15.7047 5.64679 15.6298 5.60952 15.5931 5.6108C15.5549 5.57225 15.5181 5.57353 15.4828 5.61462L15.1629 5.94462Z" fill="#8B2727" stroke="#8B2727" stroke-width="0.1"/>
</svg>
