<svg width="25" height="24" viewBox="0 0 25 24" fill="none" xmlns="http://www.w3.org/2000/svg">
<path d="M13.75 11.1V11.25H13.9H18.1C18.2989 11.25 18.4897 11.329 18.6303 11.4697C18.771 11.6103 18.85 11.8011 18.85 12C18.85 12.1989 18.771 12.3897 18.6303 12.5303C18.4897 12.671 18.2989 12.75 18.1 12.75H13.9H13.75V12.9V17.1C13.75 17.2989 13.671 17.4897 13.5303 17.6303C13.3897 17.771 13.1989 17.85 13 17.85C12.8011 17.85 12.6103 17.771 12.4697 17.6303C12.329 17.4897 12.25 17.2989 12.25 17.1V12.9V12.75H12.1H7.9C7.70109 12.75 7.51032 12.671 7.36967 12.5303C7.22902 12.3897 7.15 12.1989 7.15 12C7.15 11.8011 7.22902 11.6103 7.36967 11.4697C7.51032 11.329 7.70109 11.25 7.9 11.25H12.1H12.25V11.1V6.9C12.25 6.70109 12.329 6.51032 12.4697 6.36967C12.6103 6.22902 12.8011 6.15 13 6.15C13.1989 6.15 13.3897 6.22902 13.5303 6.36967C13.671 6.51032 13.75 6.70109 13.75 6.9V11.1Z" fill="black" stroke="white" stroke-width="0.3"/>
<path d="M2.2 4.97222C2.2 3.97177 2.59743 3.01229 3.30486 2.30486C4.01229 1.59743 4.97177 1.2 5.97222 1.2H20.0278C21.0282 1.2 21.9877 1.59743 22.6951 2.30486C23.4026 3.01229 23.8 3.97177 23.8 4.97222V19.0278C23.8 20.0282 23.4026 20.9877 22.6951 21.6951C21.9877 22.4026 21.0282 22.8 20.0278 22.8H5.97222C4.97177 22.8 4.01229 22.4026 3.30486 21.6951C2.59743 20.9877 2.2 20.0282 2.2 19.0278V4.97222ZM5.97222 2.63333C5.35191 2.63333 4.757 2.87975 4.31838 3.31838C3.87975 3.757 3.63333 4.35191 3.63333 4.97222V19.0278C3.63333 20.3189 4.6811 21.3667 5.97222 21.3667H20.0278C20.6481 21.3667 21.243 21.1202 21.6816 20.6816C22.1202 20.243 22.3667 19.6481 22.3667 19.0278V4.97222C22.3667 4.35191 22.1202 3.757 21.6816 3.31838C21.243 2.87975 20.6481 2.63333 20.0278 2.63333H5.97222Z" fill="black" stroke="white" stroke-width="0.4"/>
</svg>
