<svg width="25" height="31" viewBox="0 0 25 31" fill="none" xmlns="http://www.w3.org/2000/svg">
<path d="M1.48945 10.6106H1.63945V10.5317H8.98456H9.13455V10.3817V6.358C9.13455 6.25716 9.15119 6.17983 9.1808 6.1132C9.2107 6.04592 9.25727 5.98183 9.32731 5.91179L10.353 4.88615L10.4248 4.81434L10.3848 4.721C9.94431 3.69328 10.3781 2.49413 11.2208 1.65142C12.3647 0.507562 14.0805 0.387154 14.9512 1.25464C15.758 2.13765 15.8464 3.77783 14.5623 4.98644L14.5622 4.98639L14.559 4.9896C13.7163 5.83232 12.5171 6.2661 11.4894 5.82565L11.3961 5.78565L11.3243 5.85745L10.5353 6.64641L10.4914 6.69035V6.75248V10.3817V10.5317H10.6414H23.7381C23.9088 10.5317 24.1043 10.6492 24.2444 10.8594C24.3677 11.0443 24.3746 11.304 24.3086 11.5094L20.5263 19.4678C20.4565 19.6071 20.3738 19.7027 20.2821 19.7638C20.191 19.8245 20.0826 19.857 19.9511 19.857H18.6099H18.4599V20.007V28.8433V28.9933H18.6099H21.3712C21.5738 28.9933 21.731 29.0602 21.8371 29.1664C21.9433 29.2725 22.0102 29.4297 22.0102 29.6323C22.0102 29.8349 21.9433 29.9921 21.8371 30.0982C21.731 30.2044 21.5738 30.2712 21.3712 30.2712H3.93522C3.73262 30.2712 3.57544 30.2044 3.46929 30.0982C3.36314 29.9921 3.29626 29.8349 3.29626 29.6323C3.29626 29.4297 3.36314 29.2725 3.46929 29.1664C3.57544 29.0602 3.73262 28.9933 3.93522 28.9933H6.69657H6.84657V28.8433V20.0859V19.9359H6.69657H5.35534C5.12228 19.9359 4.92668 19.7613 4.77568 19.5376L0.918947 11.588C0.892504 11.5022 0.8906 11.3936 0.908152 11.2708C0.926058 11.1454 0.962424 11.017 1.00058 10.9025C1.0246 10.8305 1.09077 10.7567 1.19027 10.6986C1.28878 10.6412 1.40103 10.6106 1.48945 10.6106ZM14.14 2.14935L14.1404 2.14891L14.1299 2.14018C13.8416 1.8999 13.4684 1.88635 13.1254 1.98281C12.7819 2.07943 12.4445 2.29149 12.1921 2.54383C11.9409 2.79504 11.7096 3.15072 11.6027 3.49273C11.4995 3.82322 11.4965 4.21005 11.8138 4.42696C12.1012 4.6624 12.4716 4.67509 12.8122 4.57931C13.1557 4.48269 13.4931 4.27063 13.7455 4.01829C13.9976 3.76618 14.2094 3.42917 14.3062 3.09606C14.4018 2.76645 14.3932 2.40256 14.14 2.14935ZM17.0319 28.9933H17.1819V28.8433V20.007V19.857H17.0319H8.27449H8.12449V20.007V28.8433V28.9933H8.27449H17.0319ZM19.3988 18.5791H19.492L19.5333 18.4955L22.6891 12.1049L22.796 11.8885H22.5546H2.75178H2.51308L2.61663 12.1036L5.69357 18.4941L5.73446 18.5791H5.82872H19.3988Z" fill="#1D1D1D" stroke="white" stroke-width="0.3"/>
</svg>
