<svg width="21" height="20" viewBox="0 0 21 20" fill="none" xmlns="http://www.w3.org/2000/svg">
<path d="M16.4797 19.1636H4.52079C3.39202 19.1636 2.44629 18.2066 2.44629 16.9945V7.32891C2.44629 6.69092 2.72086 6.08483 3.20897 5.67014L9.18843 0.502417C9.95111 -0.167472 11.0494 -0.167472 11.8121 0.502417L17.7915 5.63824C18.2796 6.05293 18.5542 6.65902 18.5542 7.29701V16.9626C18.5542 18.2066 17.6085 19.1636 16.4797 19.1636ZM10.5002 1.29991C10.3172 1.29991 10.1037 1.3637 9.95111 1.4913L3.97166 6.65902C3.78862 6.81852 3.66659 7.07372 3.66659 7.32891V16.9945C3.66659 17.473 4.03267 17.8877 4.52079 17.8877H16.4797C16.9373 17.8877 17.3339 17.5049 17.3339 16.9945V7.32891C17.3339 7.07372 17.2119 6.81852 17.0288 6.65902L11.0494 1.4913C10.8968 1.3637 10.6833 1.29991 10.5002 1.29991Z" fill="#1D1D1D"/>
<path d="M16.4797 19.1636H4.52079C3.39202 19.1636 2.44629 18.2066 2.44629 16.9945V7.32891C2.44629 6.69092 2.72086 6.08483 3.20897 5.67014L9.18843 0.502417C9.95111 -0.167472 11.0494 -0.167472 11.8121 0.502417L17.7915 5.63824C18.2796 6.05293 18.5542 6.65902 18.5542 7.29701V16.9626C18.5542 18.2066 17.6085 19.1636 16.4797 19.1636ZM10.5002 1.29991C10.3172 1.29991 10.1037 1.3637 9.95111 1.4913L3.97166 6.65902C3.78862 6.81852 3.66659 7.07372 3.66659 7.32891V16.9945C3.66659 17.473 4.03267 17.8877 4.52079 17.8877H16.4797C16.9373 17.8877 17.3339 17.5049 17.3339 16.9945V7.32891C17.3339 7.07372 17.2119 6.81852 17.0288 6.65902L11.0494 1.4913C10.8968 1.3637 10.6833 1.29991 10.5002 1.29991Z" stroke="white"/>
<path d="M14.1614 16.3565H6.83964C6.50406 16.3565 6.22949 16.0695 6.22949 15.7186C6.22949 15.3677 6.50406 15.0806 6.83964 15.0806H14.1614C14.497 15.0806 14.7716 15.3677 14.7716 15.7186C14.7716 16.0695 14.497 16.3565 14.1614 16.3565Z" fill="#1D1D1D"/>
<path d="M14.1614 16.3565H6.83964C6.50406 16.3565 6.22949 16.0695 6.22949 15.7186C6.22949 15.3677 6.50406 15.0806 6.83964 15.0806H14.1614C14.497 15.0806 14.7716 15.3677 14.7716 15.7186C14.7716 16.0695 14.497 16.3565 14.1614 16.3565Z" stroke="#1D1D1D"/>
</svg>
