<svg width="25" height="24" viewBox="0 0 25 24" fill="none" xmlns="http://www.w3.org/2000/svg">
<g clip-path="url(#clip0_440_2605)">
<path d="M21.8956 2.6047C18.4226 -0.867844 12.7714 -0.867984 9.29821 2.60474C6.17503 5.72839 5.83879 10.6257 8.38218 14.1292L6.92123 15.5898C6.40903 15.3447 5.76131 15.4238 5.32022 15.865L1.18763 19.998C0.271367 20.9137 0.270617 22.3965 1.1874 23.3127C2.10328 24.2292 3.58608 24.2295 4.50216 23.3128L8.63535 19.1801C9.07626 18.7391 9.15566 18.0914 8.91041 17.5791L10.3712 16.118C13.8754 18.662 18.7724 18.3249 21.8956 15.2021C25.3683 11.729 25.3683 6.07785 21.8956 2.6047ZM7.9723 18.5171L3.83902 22.6499C3.28969 23.1996 2.40047 23.2001 1.85039 22.6496C1.30055 22.1002 1.30022 21.211 1.85049 20.6611L5.98317 16.528C6.16584 16.3452 6.46326 16.3451 6.64593 16.528L7.97226 17.8543C8.15507 18.037 8.15507 18.3344 7.9723 18.5171ZM8.3038 16.8597L7.64062 16.1965L8.97566 14.8618C9.08019 14.978 9.18773 15.0915 9.29816 15.2021C9.4088 15.3126 9.52229 15.4201 9.63852 15.5247L8.3038 16.8597ZM21.2326 14.5391C18.1258 17.6454 13.0934 17.6718 9.96111 14.5391C6.83254 11.4109 6.85115 6.37822 9.96111 3.26774C13.0684 0.160873 18.1248 0.160357 21.2325 3.26774C24.3396 6.37527 24.3396 11.4316 21.2326 14.5391Z" fill="white"/>
</g>
<defs>
<clipPath id="clip0_440_2605">
<rect width="24" height="24" fill="white" transform="translate(0.5)"/>
</clipPath>
</defs>
</svg>
