<svg width="22" height="22" viewBox="0 0 22 22" fill="none" xmlns="http://www.w3.org/2000/svg">
<path d="M21.5 11C21.5 12.3789 21.2284 13.7443 20.7007 15.0182C20.2865 16.0182 19.7208 16.9465 19.0251 17.7711C18.8345 17.9969 18.6342 18.215 18.4246 18.4246C17.4496 19.3996 16.2921 20.1731 15.0182 20.7007C13.7443 21.2284 12.3789 21.5 11 21.5C9.62112 21.5 8.25574 21.2284 6.98182 20.7007C5.70791 20.1731 4.55039 19.3996 3.57538 18.4246C3.36576 18.215 3.16545 17.9969 2.97491 17.7711C2.27916 16.9465 1.71349 16.0182 1.29926 15.0182C0.77159 13.7443 0.5 12.3789 0.5 11C0.5 8.21523 1.60625 5.54451 3.57538 3.57538C5.54451 1.60625 8.21523 0.5 11 0.5C13.7848 0.5 16.4555 1.60625 18.4246 3.57538C20.3938 5.54451 21.5 8.21523 21.5 11Z" stroke="white" stroke-linecap="round" stroke-linejoin="round"/>
</svg>
